<?xml version="1.0" encoding="utf-8"?>
<!-- Generator: Adobe Illustrator 22.0.1, SVG Export Plug-In . SVG Version: 6.00 Build 0)  -->
<svg version="1.1" id="_x31_" xmlns="http://www.w3.org/2000/svg" xmlns:xlink="http://www.w3.org/1999/xlink" x="0px" y="0px"
	 viewBox="0 0 512 512" style="enable-background:new 0 0 512 512;" xml:space="preserve">
<style type="text/css">
	.st0{fill:#FFFFFF;}
</style>
<g>
	<path class="st0" d="M506.7,246.9l-122.5-70.7c-5-2.9-11.5-1.2-14.4,3.8c-2.9,5-1.2,11.5,3.8,14.4l88.5,51.1H10.5
		C4.7,245.5,0,250.2,0,256c0,5.8,4.7,10.5,10.5,10.5h451.7l-88.5,51.1c-5,2.9-6.8,9.3-3.8,14.4c1.9,3.4,5.5,5.3,9.1,5.3
		c1.8,0,3.6-0.5,5.2-1.4l122.5-70.7c3.3-1.9,5.3-5.3,5.3-9.1S510,248.8,506.7,246.9z"/>
</g>
</svg>
