<?xml version="1.0" encoding="utf-8"?>
<!-- Generator: Adobe Illustrator 22.0.1, SVG Export Plug-In . SVG Version: 6.00 Build 0)  -->
<svg version="1.1" id="Capa_1" xmlns="http://www.w3.org/2000/svg" xmlns:xlink="http://www.w3.org/1999/xlink" x="0px" y="0px"
	 viewBox="0 0 512 512" style="enable-background:new 0 0 512 512;" xml:space="preserve">
<style type="text/css">
	.st0{fill:none;}
	.st1{fill:#005E98;}
</style>
<polygon class="st0" points="430.2,17.1 386.7,60.5 435.2,99.1 435.2,17.1 "/>
<polygon class="st0" points="72.5,119.5 128,119.5 128,85.3 76.8,116.8 76.8,116.8 "/>
<polygon class="st0" points="81.8,17.1 76.8,17.1 76.8,99.1 125.3,60.5 "/>
<polygon class="st0" points="384,85.3 384,119.5 435.2,119.5 435.2,116.8 "/>
<path class="st0" d="M68.3,494.9h375.5V136.5H68.3V494.9z M324.3,153.6c18.8,0,34.1,15.3,34.1,34.1c0,4.7-3.8,8.5-8.5,8.5
	c-4.7,0-8.5-3.8-8.5-8.5c0-9.4-7.7-17.1-17.1-17.1s-17.1,7.7-17.1,17.1c0,4.7-3.8,8.5-8.5,8.5s-8.5-3.8-8.5-8.5
	C290.1,168.9,305.4,153.6,324.3,153.6z M315.7,238.9v-51.2c0-4.7,3.8-8.5,8.5-8.5s8.5,3.8,8.5,8.5v51.2c0,42.4-34.5,76.8-76.8,76.8
	s-76.8-34.4-76.8-76.8v-51.2c0-4.7,3.8-8.5,8.5-8.5s8.5,3.8,8.5,8.5v51.2c0,32.9,26.8,59.7,59.7,59.7S315.7,271.9,315.7,238.9z
	 M187.7,153.6c18.8,0,34.1,15.3,34.1,34.1c0,4.7-3.8,8.5-8.5,8.5c-4.7,0-8.5-3.8-8.5-8.5c0-9.4-7.7-17.1-17.1-17.1
	c-9.4,0-17.1,7.7-17.1,17.1c0,4.7-3.8,8.5-8.5,8.5s-8.5-3.8-8.5-8.5C153.6,168.9,168.9,153.6,187.7,153.6z"/>
<path class="st1" d="M162.1,196.3c4.7,0,8.5-3.8,8.5-8.5c0-9.4,7.7-17.1,17.1-17.1c9.4,0,17.1,7.7,17.1,17.1c0,4.7,3.8,8.5,8.5,8.5
	c4.7,0,8.5-3.8,8.5-8.5c0-18.8-15.3-34.1-34.1-34.1s-34.1,15.3-34.1,34.1C153.6,192.5,157.4,196.3,162.1,196.3z"/>
<path class="st1" d="M298.7,196.3c4.7,0,8.5-3.8,8.5-8.5c0-9.4,7.7-17.1,17.1-17.1s17.1,7.7,17.1,17.1c0,4.7,3.8,8.5,8.5,8.5
	c4.7,0,8.5-3.8,8.5-8.5c0-18.8-15.3-34.1-34.1-34.1s-34.1,15.3-34.1,34.1C290.1,192.5,294,196.3,298.7,196.3z"/>
<path class="st1" d="M452.3,112.7V0H59.7v112.7l17.1-13.6v-82l48.5,43.5L76.8,99.1v17.7L128,78.8v40.7H72.5H59.7h-8.5V512h409.6
	V119.5L452.3,112.7z M435.2,17.1v82l-48.5-38.6L435.2,17.1z M384,78.8l51.2,38.1l4.3,2.6h-4.3H384V78.8z M443.7,494.9H68.3V136.5
	h375.5V494.9z"/>
<polygon class="st1" points="76.8,116.8 76.8,116.8 72.5,119.5 "/>
<polygon class="st1" points="59.7,112.7 51.2,119.5 59.7,119.5 72.5,119.5 76.8,116.8 76.8,99.1 "/>
<path class="st1" d="M196.3,238.9v-51.2c0-4.7-3.8-8.5-8.5-8.5s-8.5,3.8-8.5,8.5v51.2c0,42.4,34.5,76.8,76.8,76.8
	s76.8-34.4,76.8-76.8v-51.2c0-4.7-3.8-8.5-8.5-8.5s-8.5,3.8-8.5,8.5v51.2c0,32.9-26.8,59.7-59.7,59.7S196.3,271.9,196.3,238.9z"/>
</svg>
