<?xml version="1.0" encoding="utf-8"?>
<!-- Generator: Adobe Illustrator 22.0.1, SVG Export Plug-In . SVG Version: 6.00 Build 0)  -->
<svg version="1.1" id="Layer_1" xmlns="http://www.w3.org/2000/svg" xmlns:xlink="http://www.w3.org/1999/xlink" x="0px" y="0px"
	 viewBox="0 0 512 512" style="enable-background:new 0 0 512 512;" xml:space="preserve">
<style type="text/css">
	.st0{fill:#005E98;}
</style>
<g>
	<path class="st0" d="M366.9,170.7h-17.1c-4.7,0-8.5,3.8-8.5,8.5s3.8,8.5,8.5,8.5h17.1c4.7,0,8.5-3.8,8.5-8.5
		S371.6,170.7,366.9,170.7z"/>
	<path class="st0" d="M366.9,204.8h-17.1c-4.7,0-8.5,3.8-8.5,8.5s3.8,8.5,8.5,8.5h17.1c4.7,0,8.5-3.8,8.5-8.5
		C375.5,208.6,371.6,204.8,366.9,204.8z"/>
	<path class="st0" d="M366.9,136.5h-17.1c-4.7,0-8.5,3.8-8.5,8.5c0,4.7,3.8,8.5,8.5,8.5h17.1c4.7,0,8.5-3.8,8.5-8.5
		C375.5,140.4,371.6,136.5,366.9,136.5z"/>
	<path class="st0" d="M366.9,409.6h-17.1c-4.7,0-8.5,3.8-8.5,8.5c0,4.7,3.8,8.5,8.5,8.5h17.1c4.7,0,8.5-3.8,8.5-8.5
		C375.5,413.4,371.6,409.6,366.9,409.6z"/>
	<path class="st0" d="M179.2,136.5H128c-4.7,0-8.5,3.8-8.5,8.5v119.5c0,4.7,3.8,8.5,8.5,8.5h51.2c4.7,0,8.5-3.8,8.5-8.5V145.1
		C187.7,140.4,183.9,136.5,179.2,136.5z"/>
	<path class="st0" d="M179.2,409.6H128c-4.7,0-8.5,3.8-8.5,8.5c0,4.7,3.8,8.5,8.5,8.5h51.2c4.7,0,8.5-3.8,8.5-8.5
		C187.7,413.4,183.9,409.6,179.2,409.6z"/>
	<path class="st0" d="M179.2,443.7H128c-4.7,0-8.5,3.8-8.5,8.5c0,4.7,3.8,8.5,8.5,8.5h51.2c4.7,0,8.5-3.8,8.5-8.5
		C187.7,447.6,183.9,443.7,179.2,443.7z"/>
	<path class="st0" d="M366.9,443.7h-17.1c-4.7,0-8.5,3.8-8.5,8.5c0,4.7,3.8,8.5,8.5,8.5h17.1c4.7,0,8.5-3.8,8.5-8.5
		C375.5,447.6,371.6,443.7,366.9,443.7z"/>
	<path class="st0" d="M469.3,443.7h-34.1c-4.7,0-8.5,3.8-8.5,8.5c0,4.7,3.8,8.5,8.5,8.5h34.1c4.7,0,8.5-3.8,8.5-8.5
		C477.9,447.6,474,443.7,469.3,443.7z"/>
	<path class="st0" d="M281.6,136.5h-34.1c-4.7,0-8.5,3.8-8.5,8.5v119.5c0,4.7,3.8,8.5,8.5,8.5h34.1c4.7,0,8.5-3.8,8.5-8.5V145.1
		C290.1,140.4,286.3,136.5,281.6,136.5z"/>
	<path class="st0" d="M469.3,409.6h-34.1c-4.7,0-8.5,3.8-8.5,8.5c0,4.7,3.8,8.5,8.5,8.5h34.1c4.7,0,8.5-3.8,8.5-8.5
		C477.9,413.4,474,409.6,469.3,409.6z"/>
	<path class="st0" d="M281.6,443.7h-34.1c-4.7,0-8.5,3.8-8.5,8.5c0,4.7,3.8,8.5,8.5,8.5h34.1c4.7,0,8.5-3.8,8.5-8.5
		C290.1,447.6,286.3,443.7,281.6,443.7z"/>
	<path class="st0" d="M435.2,307.2c4.7,0,8.5-3.8,8.5-8.5v-85.3c0-4.7-3.8-8.5-8.5-8.5c-4.7,0-8.5,3.8-8.5,8.5v85.3
		C426.7,303.4,430.5,307.2,435.2,307.2z"/>
	<path class="st0" d="M469.3,204.8c-4.7,0-8.5,3.8-8.5,8.5v85.3c0,4.7,3.8,8.5,8.5,8.5c4.7,0,8.5-3.8,8.5-8.5v-85.3
		C477.9,208.6,474,204.8,469.3,204.8z"/>
	<path class="st0" d="M486.4,68.3h-76.8V42.7c0-14.4-11.2-25.6-25.6-25.6h-51.2c-11.1,0-20.6,7.1-24.1,17.1h-86.8v-8.5
		c0-14.4-11.2-25.6-25.6-25.6h-85.3C96.8,0,85.3,11.5,85.3,25.6v25.6H25.6C11.5,51.2,0,62.7,0,76.8v409.6C0,500.5,11.5,512,25.6,512
		h460.8c14.1,0,25.6-11.5,25.6-25.6V93.9C512,79.8,500.5,68.3,486.4,68.3z M42.7,119.5h42.7v375.5H25.6c-4.7,0-8.5-3.8-8.5-8.5V76.8
		c0-4.7,3.8-8.5,8.5-8.5h59.7v34.1H42.7c-4.7,0-8.5,3.8-8.5,8.5C34.1,115.6,38,119.5,42.7,119.5z M102.4,494.9V68.3h76.8
		c4.7,0,8.5-3.8,8.5-8.5c0-4.7-3.8-8.5-8.5-8.5h-76.8V25.6c0-4.8,3.7-8.5,8.5-8.5h85.3c4.9,0,8.5,3.7,8.5,8.5v469.3H102.4z
		 M221.9,494.9V51.2h85.3v443.7H221.9z M392.5,494.9h-68.3V85.3h42.7c4.7,0,8.5-3.8,8.5-8.5c0-4.7-3.8-8.5-8.5-8.5h-42.7V42.7
		c0-4.8,3.7-8.5,8.5-8.5H384c4.9,0,8.5,3.7,8.5,8.5V494.9z M494.9,486.4c0,4.7-3.8,8.5-8.5,8.5h-76.8V136.5h51.2
		c4.7,0,8.5-3.8,8.5-8.5c0-4.7-3.8-8.5-8.5-8.5h-51.2V85.3h76.8c4.7,0,8.5,3.8,8.5,8.5V486.4z"/>
	<path class="st0" d="M59.7,409.6H42.7c-4.7,0-8.5,3.8-8.5,8.5c0,4.7,3.8,8.5,8.5,8.5h17.1c4.7,0,8.5-3.8,8.5-8.5
		C68.3,413.4,64.4,409.6,59.7,409.6z"/>
	<path class="st0" d="M59.7,443.7H42.7c-4.7,0-8.5,3.8-8.5,8.5c0,4.7,3.8,8.5,8.5,8.5h17.1c4.7,0,8.5-3.8,8.5-8.5
		C68.3,447.6,64.4,443.7,59.7,443.7z"/>
	<path class="st0" d="M281.6,409.6h-34.1c-4.7,0-8.5,3.8-8.5,8.5c0,4.7,3.8,8.5,8.5,8.5h34.1c4.7,0,8.5-3.8,8.5-8.5
		C290.1,413.4,286.3,409.6,281.6,409.6z"/>
	<path class="st0" d="M42.7,221.9h17.1c4.7,0,8.5-3.8,8.5-8.5s-3.8-8.5-8.5-8.5H42.7c-4.7,0-8.5,3.8-8.5,8.5S38,221.9,42.7,221.9z"
		/>
	<path class="st0" d="M59.7,238.9H42.7c-4.7,0-8.5,3.8-8.5,8.5s3.8,8.5,8.5,8.5h17.1c4.7,0,8.5-3.8,8.5-8.5S64.4,238.9,59.7,238.9z"
		/>
</g>
</svg>
