<?xml version="1.0" encoding="utf-8"?>
<!-- Generator: Adobe Illustrator 22.0.1, SVG Export Plug-In . SVG Version: 6.00 Build 0)  -->
<svg version="1.1" id="_x31_" xmlns="http://www.w3.org/2000/svg" xmlns:xlink="http://www.w3.org/1999/xlink" x="0px" y="0px"
	 viewBox="0 0 512 512" style="enable-background:new 0 0 512 512;" xml:space="preserve">
<style type="text/css">
	.st0{fill:#005E98;}
</style>
<g>
	<path class="st0" d="M480,12H64c-17.6,0-32,14.4-32,32v24H20C9,68,0,77,0,88s9,20,20,20h12v32H20c-11,0-20,9-20,20s9,20,20,20h12
		v32H20c-11,0-20,9-20,20s9,20,20,20h12v32H20c-11,0-20,9-20,20c0,11,9,20,20,20h12v32H20c-11,0-20,9-20,20c0,11,9,20,20,20h12v72
		c0,17.6,14.4,32,32,32h416c17.6,0,32-14.4,32-32v-48V44C512,26.4,497.6,12,480,12z M16,88c0-2.2,1.8-4,4-4h40c2.2,0,4,1.8,4,4
		s-1.8,4-4,4H20C17.8,92,16,90.2,16,88z M16,160c0-2.2,1.8-4,4-4h40c2.2,0,4,1.8,4,4s-1.8,4-4,4H20C17.8,164,16,162.2,16,160z
		 M16,232c0-2.2,1.8-4,4-4h40c2.2,0,4,1.8,4,4s-1.8,4-4,4H20C17.8,236,16,234.2,16,232z M16,304c0-2.2,1.8-4,4-4h40c2.2,0,4,1.8,4,4
		s-1.8,4-4,4H20C17.8,308,16,306.2,16,304z M16,376c0-2.2,1.8-4,4-4h40c2.2,0,4,1.8,4,4s-1.8,4-4,4H20C17.8,380,16,378.2,16,376z
		 M60,396c11,0,20-9,20-20c0-11-9-20-20-20H48v-32h12c11,0,20-9,20-20c0-11-9-20-20-20H48v-32h12c11,0,20-9,20-20s-9-20-20-20H48
		v-32h12c11,0,20-9,20-20s-9-20-20-20H48v-32h12c11,0,20-9,20-20s-9-20-20-20H48V44c0-8.8,7.2-16,16-16h416c8.8,0,16,7.2,16,16v376
		c0,8.8-7.2,16-16,16H64c-5.8,0-11.3,1.6-16,4.3V396H60z M480,484h-8v-32h8c5.8,0,11.3-1.6,16-4.3V468C496,476.8,488.8,484,480,484z
		"/>
	<path class="st0" d="M112,412h160h32h160c4.4,0,8-3.6,8-8V60c0-4.4-3.6-8-8-8H112c-4.4,0-8,3.6-8,8v344
		C104,408.4,107.6,412,112,412z M288,253.4l72,44.3V396h-48v-48c0-4.4-3.6-8-8-8h-32c-4.4,0-8,3.6-8,8v48h-48v-98.3L288,253.4z
		 M120,68h336v328h-80v-88.5l11.8,7.3c0,0,0.1,0,0.1,0.1c0.6,0.3,1.2,0.6,1.9,0.8c0.1,0,0.1,0,0.2,0.1c0.3,0.1,0.5,0.1,0.8,0.2
		c0.1,0,0.2,0,0.3,0c0.3,0,0.6,0.1,0.9,0.1c0,0,0,0,0,0c0,0,0,0,0,0c0,0,0,0,0,0c0.3,0,0.6,0,0.9-0.1c0.1,0,0.1,0,0.2,0
		c0.3,0,0.5-0.1,0.7-0.1c0.1,0,0.1,0,0.2-0.1c0.3-0.1,0.5-0.1,0.8-0.2c0,0,0.1,0,0.1-0.1c0.3-0.1,0.6-0.3,0.9-0.4c0,0,0,0,0,0
		c0.3-0.1,0.5-0.3,0.7-0.5c0.1-0.1,0.2-0.1,0.2-0.2c0.2-0.1,0.3-0.3,0.5-0.4c0.1-0.1,0.2-0.1,0.3-0.2c0.2-0.2,0.4-0.4,0.6-0.6
		c0.1-0.1,0.1-0.1,0.2-0.2c0.1-0.2,0.3-0.4,0.4-0.6c0,0,0.1-0.1,0.1-0.1c0-0.1,0.1-0.2,0.1-0.2c0.1-0.1,0.1-0.2,0.2-0.3
		c0.1-0.1,0.1-0.3,0.2-0.4c0-0.1,0.1-0.2,0.1-0.3c0.1-0.1,0.1-0.3,0.2-0.4c0-0.1,0.1-0.2,0.1-0.3c0-0.2,0.1-0.3,0.1-0.5
		c0-0.1,0-0.2,0.1-0.3c0-0.2,0.1-0.3,0.1-0.5c0-0.1,0-0.2,0-0.3c0-0.2,0-0.4,0-0.6c0,0,0-0.1,0-0.1v-32c0,0,0-0.1,0-0.1
		c0-0.2,0-0.4,0-0.5c0-0.1,0-0.2,0-0.3c0-0.1,0-0.3-0.1-0.4c0-0.1,0-0.2-0.1-0.4c0-0.1-0.1-0.2-0.1-0.4c0-0.1-0.1-0.3-0.1-0.4
		c0-0.1-0.1-0.2-0.1-0.3c-0.1-0.1-0.1-0.3-0.2-0.4c0-0.1-0.1-0.2-0.2-0.3c-0.1-0.1-0.1-0.2-0.2-0.4c-0.1-0.1-0.1-0.2-0.2-0.3
		c-0.1-0.1-0.1-0.2-0.2-0.3c-0.1-0.1-0.2-0.2-0.2-0.3c-0.1-0.1-0.1-0.2-0.2-0.3c-0.1-0.1-0.2-0.2-0.3-0.3c-0.1-0.1-0.2-0.2-0.3-0.3
		c-0.1-0.1-0.2-0.2-0.2-0.2c-0.1-0.1-0.2-0.2-0.4-0.3c-0.1-0.1-0.1-0.1-0.2-0.2c-0.2-0.1-0.3-0.2-0.5-0.3c0,0,0,0-0.1,0l-103.9-64
		c-2-1.2-4.4-1.6-6.7-0.8c-0.1,0-0.1,0-0.2,0.1c-0.2,0.1-0.3,0.1-0.4,0.2c-0.1,0-0.2,0.1-0.3,0.1c-0.1,0.1-0.2,0.1-0.4,0.2
		c-0.1,0.1-0.2,0.1-0.4,0.2c0,0-0.1,0-0.1,0.1l-104,64c-0.1,0-0.1,0.1-0.2,0.1c-0.1,0.1-0.2,0.1-0.2,0.2c-0.1,0.1-0.3,0.2-0.4,0.3
		c-0.1,0-0.1,0.1-0.2,0.1c-0.2,0.1-0.3,0.3-0.4,0.4c0,0-0.1,0.1-0.1,0.1c-0.2,0.2-0.3,0.3-0.4,0.5c0,0,0,0.1-0.1,0.1
		c-0.1,0.2-0.3,0.3-0.4,0.5c0,0-0.1,0.1-0.1,0.1c-0.1,0.2-0.2,0.3-0.3,0.5c0,0.1-0.1,0.1-0.1,0.2c-0.1,0.2-0.2,0.3-0.2,0.5
		c0,0.1-0.1,0.2-0.1,0.3c-0.1,0.2-0.1,0.3-0.2,0.5c0,0.1-0.1,0.2-0.1,0.3c0,0.2-0.1,0.3-0.1,0.5c0,0.1,0,0.2-0.1,0.3
		c0,0.2-0.1,0.3-0.1,0.5c0,0.1,0,0.2,0,0.3c0,0.2,0,0.4,0,0.5c0,0,0,0.1,0,0.1v32c0,0,0,0.1,0,0.1c0,0.2,0,0.4,0,0.5
		c0,0.1,0,0.2,0,0.3c0,0.2,0,0.3,0.1,0.5c0,0.1,0,0.2,0.1,0.3c0,0.1,0.1,0.3,0.1,0.4c0,0.1,0.1,0.3,0.1,0.4c0,0.1,0.1,0.2,0.1,0.3
		c0.1,0.1,0.1,0.3,0.2,0.4c0,0.1,0.1,0.2,0.1,0.3c0.1,0.2,0.2,0.3,0.2,0.4c0,0,0,0.1,0.1,0.1c0,0,0,0.1,0.1,0.1
		c0.2,0.3,0.3,0.5,0.5,0.8c0,0,0,0,0,0c0.2,0.2,0.4,0.5,0.6,0.7c0.1,0.1,0.1,0.1,0.2,0.2c0.2,0.2,0.4,0.3,0.5,0.4
		c0.1,0.1,0.1,0.1,0.2,0.2c0.5,0.4,1.1,0.7,1.6,0.9c0,0,0.1,0,0.1,0c0.2,0.1,0.5,0.2,0.8,0.2c0.1,0,0.1,0,0.2,0.1
		c0.2,0.1,0.5,0.1,0.7,0.1c0.1,0,0.1,0,0.2,0c0.3,0,0.6,0.1,0.9,0.1c0,0,0,0,0,0c0,0,0,0,0,0c0,0,0,0,0,0c0.3,0,0.6,0,0.9-0.1
		c0.1,0,0.2,0,0.3,0c0.3,0,0.5-0.1,0.8-0.2c0.1,0,0.1,0,0.2,0c0.7-0.2,1.4-0.5,2-0.9c0,0,0,0,0,0l0.1-0.1c0.1,0,0.1-0.1,0.2-0.1
		l11.5-7.1V396h-80V68z"/>
	<path class="st0" d="M355.2,172c0.3,0,0.5,0,0.8,0h52c17.6,0,32-14.4,32-32s-14.4-32-32-32c-14.9,0-27.4,10.2-31,24h-21
		c-0.3,0-0.6,0-0.8,0c-10.6,0.4-19.2,9.2-19.2,20S344.5,171.5,355.2,172z M408,124c8.8,0,16,7.2,16,16c0,8.8-7.2,16-16,16h-52
		c-2.2,0-4-1.8-4-4s1.8-4,4-4h28c4.4,0,8-3.6,8-8C392,131.2,399.2,124,408,124z"/>
	<path class="st0" d="M216,140c0-13.2-10.8-24-24-24s-24,10.8-24,24s10.8,24,24,24S216,153.2,216,140z"/>
	<path class="st0" d="M192,108c4.4,0,8-3.6,8-8v-8c0-4.4-3.6-8-8-8c-4.4,0-8,3.6-8,8v8C184,104.4,187.6,108,192,108z"/>
	<path class="st0" d="M192,172c-4.4,0-8,3.6-8,8v8c0,4.4,3.6,8,8,8c4.4,0,8-3.6,8-8v-8C200,175.6,196.4,172,192,172z"/>
	<path class="st0" d="M158.1,117.4c1.6,1.6,3.6,2.3,5.7,2.3c2,0,4.1-0.8,5.7-2.3c3.1-3.1,3.1-8.2,0-11.3l-5.7-5.7
		c-3.1-3.1-8.2-3.1-11.3,0c-3.1,3.1-3.1,8.2,0,11.3L158.1,117.4z"/>
	<path class="st0" d="M226,162.6c-3.1-3.1-8.2-3.1-11.3,0c-3.1,3.1-3.1,8.2,0,11.3l5.7,5.7c1.6,1.6,3.6,2.3,5.7,2.3
		c2,0,4.1-0.8,5.7-2.3c3.1-3.1,3.1-8.2,0-11.3L226,162.6z"/>
	<path class="st0" d="M160,140c0-4.4-3.6-8-8-8h-8c-4.4,0-8,3.6-8,8s3.6,8,8,8h8C156.4,148,160,144.4,160,140z"/>
	<path class="st0" d="M224,140c0,4.4,3.6,8,8,8h8c4.4,0,8-3.6,8-8s-3.6-8-8-8h-8C227.6,132,224,135.6,224,140z"/>
	<path class="st0" d="M158.1,162.6l-5.7,5.7c-3.1,3.1-3.1,8.2,0,11.3c1.6,1.6,3.6,2.3,5.7,2.3c2,0,4.1-0.8,5.7-2.3l5.7-5.7
		c3.1-3.1,3.1-8.2,0-11.3C166.2,159.5,161.2,159.5,158.1,162.6z"/>
	<path class="st0" d="M220.3,119.7c2,0,4.1-0.8,5.7-2.3l5.7-5.7c3.1-3.1,3.1-8.2,0-11.3c-3.1-3.1-8.2-3.1-11.3,0l-5.7,5.7
		c-3.1,3.1-3.1,8.2,0,11.3C216.2,118.9,218.2,119.7,220.3,119.7z"/>
</g>
</svg>
