<?xml version="1.0" encoding="utf-8"?>
<!-- Generator: Adobe Illustrator 22.0.1, SVG Export Plug-In . SVG Version: 6.00 Build 0)  -->
<svg version="1.1" id="_x31_" xmlns="http://www.w3.org/2000/svg" xmlns:xlink="http://www.w3.org/1999/xlink" x="0px" y="0px"
	 viewBox="0 0 512 512" style="enable-background:new 0 0 512 512;" xml:space="preserve">
<style type="text/css">
	.st0{fill:#005E98;}
</style>
<g>
	<path class="st0" d="M443.7,332.7c0,14.1,11.5,25.6,25.6,25.6s25.6-11.5,25.6-25.6c0-14.1-11.5-25.6-25.6-25.6
		C455.1,307.1,443.7,318.5,443.7,332.7z M469.3,324.1c4.7,0,8.5,3.8,8.5,8.5s-3.8,8.5-8.5,8.5c-4.7,0-8.5-3.8-8.5-8.5
		S464.6,324.1,469.3,324.1z"/>
	<path class="st0" d="M264.5,119.4c14.1,0,25.6-11.5,25.6-25.6s-11.5-25.6-25.6-25.6S239,79.7,239,93.8S250.4,119.4,264.5,119.4z
		 M264.5,85.3c4.7,0,8.5,3.8,8.5,8.5s-3.8,8.5-8.5,8.5c-4.7,0-8.5-3.8-8.5-8.5S259.8,85.3,264.5,85.3z"/>
	
		<ellipse transform="matrix(0.7071 -0.7071 0.7071 0.7071 42.9341 137.7716)" class="st0" cx="187.8" cy="17.1" rx="17.1" ry="17.1"/>
	<path class="st0" d="M435.1,59.7v-8.5c0-4.7-3.8-8.5-8.5-8.5c-4.7,0-8.5,3.8-8.5,8.5v8.5c0,4.7,3.8,8.5,8.5,8.5
		C431.3,68.2,435.1,64.4,435.1,59.7z"/>
	<path class="st0" d="M426.6,25.6c4.7,0,8.5-3.8,8.5-8.5V8.5c0-4.7-3.8-8.5-8.5-8.5c-4.7,0-8.5,3.8-8.5,8.5v8.5
		C418.1,21.8,421.9,25.6,426.6,25.6z"/>
	<path class="st0" d="M443.7,42.6h8.5c4.7,0,8.5-3.8,8.5-8.5s-3.8-8.5-8.5-8.5h-8.5c-4.7,0-8.5,3.8-8.5,8.5S439,42.6,443.7,42.6z"/>
	<path class="st0" d="M401,42.6h8.5c4.7,0,8.5-3.8,8.5-8.5s-3.8-8.5-8.5-8.5H401c-4.7,0-8.5,3.8-8.5,8.5S396.3,42.6,401,42.6z"/>
	<path class="st0" d="M324.1,153.5h42.8c4.7,0,8.5-3.8,8.5-8.5v-42.8c0-4.7-3.8-8.5-8.5-8.5h-42.8c-4.7,0-8.5,3.8-8.5,8.5V145
		C315.5,149.7,319.4,153.5,324.1,153.5z"/>
	<path class="st0" d="M469.3,213.3v-8.5c0-4.7-3.8-8.5-8.5-8.5c-4.7,0-8.5,3.8-8.5,8.5v8.5c0,4.7,3.8,8.5,8.5,8.5
		C465.4,221.8,469.3,218,469.3,213.3z"/>
	<path class="st0" d="M496.9,194.7l-6-6c-3.4-3.3-8.8-3.2-12.1,0.2c-3.2,3.3-3.2,8.5,0,11.9l6,6c3.4,3.3,8.8,3.2,12.1-0.2
		C500.1,203.3,500.1,198,496.9,194.7z"/>
	<path class="st0" d="M486.3,170.6c0,4.7,3.8,8.5,8.5,8.5h8.5c4.7,0,8.5-3.8,8.5-8.5c0-4.7-3.8-8.5-8.5-8.5h-8.5
		C490.1,162.1,486.3,165.9,486.3,170.6z"/>
	<path class="st0" d="M484.9,155c2.3,0,4.4-0.9,6-2.5l6-6c3.3-3.4,3.2-8.8-0.2-12.1c-3.3-3.2-8.5-3.2-11.9,0l-6,6
		c-3.3,3.3-3.3,8.7,0,12.1C480.4,154.1,482.6,155,484.9,155z"/>
	<path class="st0" d="M452.2,128v8.5c0,4.7,3.8,8.5,8.5,8.5c4.7,0,8.5-3.8,8.5-8.5V128c0-4.7-3.8-8.5-8.5-8.5
		C456,119.4,452.2,123.2,452.2,128z"/>
	<path class="st0" d="M430.6,152.5c3.4,3.3,8.8,3.2,12.1-0.2c3.2-3.3,3.2-8.5,0-11.9l-6-6c-3.4-3.3-8.8-3.2-12.1,0.2
		c-3.2,3.3-3.2,8.5,0,11.9L430.6,152.5z"/>
	<path class="st0" d="M2.7,45.6l18.1,17.7l-4.3,24.9c-0.8,4.6,2.3,9.1,6.9,9.9c1.9,0.3,3.8,0,5.5-0.9l22.4-11.8l22.4,11.8
		c4.2,2.2,9.3,0.6,11.5-3.6c0.9-1.7,1.2-3.6,0.9-5.4l-4.3-24.9l18.1-17.7c2.3-2.3,3.1-5.7,2.1-8.7c-1-3.1-3.7-5.3-6.9-5.8l-25-3.6
		L59,4.8C56.5,0.5,51-0.9,46.8,1.6c-1.3,0.8-2.4,1.8-3.1,3.1L32.4,27.4l-25,3.6c-4.7,0.7-7.9,5-7.2,9.7C0.5,42.6,1.3,44.3,2.7,45.6z
		 M39.3,43.7c2.8-0.4,5.2-2.1,6.4-4.7l5.5-11.2L56.8,39c1.2,2.5,3.6,4.3,6.4,4.7l12.4,1.8l-9,8.7c-2,2-2.9,4.8-2.5,7.5l2.1,12.3
		l-11-5.8c-2.5-1.3-5.4-1.3-7.9,0l-11.1,5.8l2.1-12.3c0.5-2.8-0.4-5.6-2.4-7.5l-9-8.7L39.3,43.7z"/>
	<path class="st0" d="M483.1,427.6L483.1,427.6l-3.5-5.3c-19.7-29.5-50.7-49.5-85.6-55.4c-4.7-0.7-9,2.6-9.6,7.2
		c-0.6,4.5,2.4,8.7,6.8,9.6c25.2,4.3,48.2,17.1,65.1,36.3c-14.2,2.6-26.6,11.1-34.1,23.4c-9.2,16.5-3.3,37.2,13.2,46.4
		c16.5,9.2,37.2,3.3,46.4-13.2c3.5-6.8,5.4-14.3,5.5-21.9c9.1,13.2,9.8,30.4,1.9,44.3c-2.4,4.1-1.1,9.3,3,11.7
		c4.1,2.4,9.3,1.1,11.7-3c0.1-0.1,0.2-0.3,0.2-0.4C519.6,479.5,510.4,444.3,483.1,427.6z M466.8,468.4c-4.6,8.2-14.9,11.2-23.2,6.7
		c-8.2-4.6-11.2-14.9-6.7-23.2c0,0,0.1-0.1,0.1-0.1c5-8.2,13.5-13.8,23.1-15c1.5,0,3,0.3,4.3,1C471.5,441.7,471.9,459.2,466.8,468.4
		z"/>
	<path class="st0" d="M340,298.5c28.5,1,56.7,6.5,83.6,16.6c1,0.3,2,0.5,3,0.5c4.7,0,8.5-3.8,8.5-8.5c0-3.6-2.2-6.8-5.5-8
		c-31.7-11.9-65.2-17.9-98.9-17.8c-6.3-10.8-13.8-21.8-22.1-32.8l147.3-70.1c4.3-2,6.1-7.1,4-11.4c-2-4.3-7.1-6.1-11.4-4
		l-150.9,71.8c-8-9.6-16.7-19.1-26-28.4l32.6-29.4c3.4-3.2,3.6-8.6,0.4-12.1c-3.1-3.3-8.3-3.6-11.8-0.6l-33.5,30.2
		c-16.2-15-32.9-28.3-49.4-39.3c5.3-32.1,4.4-65.1-2.8-97.2c-0.9-4.6-5.4-7.6-10.1-6.7c-4.6,0.9-7.6,5.4-6.7,10.1
		c0,0.1,0,0.2,0.1,0.3c6.2,27.6,7.4,56,3.7,83.7c-7.7-4.4-15.2-8.3-22.6-11.6c-34.4-15.3-61.4-15.5-76.2-0.7
		c-4.5,4.5-7.6,10.2-9.4,16.9c0,0,0,0.1,0,0.1l0,0.1c-0.1,0.2-0.1,0.5-0.2,0.7l-15.1,63.5l-5.6,22.6c0,0,0,0.1,0,0.1L0.3,501.2
		c-1.1,4.6,1.7,9.2,6.3,10.3c1.7,0.4,3.4,0.3,5.1-0.3l318.7-121.6c0,0,0,0,0,0c5.2-1.8,9.7-4.6,13.4-8.3
		c14.8-14.8,14.6-41.9-0.7-76.3C342.1,302.9,341.1,300.7,340,298.5z M109.5,456c0,0-1.7-0.7-2.3-1.2c-40.1-34.7-54.4-95.4-42-146.2
		l9.4-38.2c23.2,65.1,71.6,118.5,134.7,147.9L109.5,456z M331.8,369.4c-2.6,2.6-6.1,4.3-10.5,5.2c-10.4,0.3-24.8-3.6-41.6-11.6
		c-35.1-18.2-67-42-94.4-70.5c-58.4-58.4-86.8-115.8-81.7-140.8l0.3-1.2l0,0c0.1-0.3,0.2-0.7,0.3-1c0.9-1.7,1.9-3.3,3.2-4.5
		c4-4,10.2-6,18.1-6c16.1,0,39.3,8.2,65.6,24.2c-3.1,14.5-7.5,28.8-13.3,42.6l-12.4,29.8c-1.8,4.3,0.3,9.3,4.6,11.1
		c1,0.4,2.2,0.7,3.3,0.7c3.4,0,6.5-2.1,7.9-5.2l12.4-29.7c5.3-12.8,9.6-25.9,12.8-39.2c13.1,9.1,26.7,20,40.3,32.7L207.7,241
		c-3.5,3.2-3.8,8.5-0.6,12c3.2,3.5,8.5,3.8,12,0.6l40-36c8.2,8.2,15.8,16.4,22.8,24.6l-12.4,5.9c-4.3,2-6.1,7.1-4,11.4c0,0,0,0,0,0
		c2,4.3,7.1,6.1,11.4,4c0,0,0,0,0,0l16.1-7.7c6.9,8.9,13,17.6,18.4,26.1c-8.8,0.6-17.5,1.6-26.2,3.1l-30.5,5.1
		c-4.6,0.9-7.7,5.4-6.8,10c0.9,4.5,5.1,7.5,9.6,6.8l30.5-5.1c11-1.8,22-2.9,33-3.4C338.7,331.9,342.5,358.6,331.8,369.4z"/>
</g>
</svg>
