<?xml version="1.0" encoding="utf-8"?>
<!-- Generator: Adobe Illustrator 22.0.1, SVG Export Plug-In . SVG Version: 6.00 Build 0)  -->
<svg version="1.1" id="_x31_" xmlns="http://www.w3.org/2000/svg" xmlns:xlink="http://www.w3.org/1999/xlink" x="0px" y="0px"
	 viewBox="0 0 512 512" style="enable-background:new 0 0 512 512;" xml:space="preserve">
<style type="text/css">
	.st0{fill:#005E98;}
</style>
<g>
	<path class="st0" d="M404.6,371.6v-16.5h82.6c13.7,0,24.8-11.1,24.8-24.8V198.2c0-13.7-11.1-24.8-24.8-24.8H256
		c-13.7,0-24.8,11.1-24.8,24.8v132.1c0,13.7,11.1,24.8,24.8,24.8h82.6v16.5H198.2v-8.3c0-13.7-11.6-24.8-25.3-24.8H145L60.2,200.5
		c3.7-5.3,5.9-11.8,5.9-18.8c0-2-0.2-4-0.6-5.9l34.6-63.4c3.2,15.7,11.9,29.7,25.2,39.6l5.4,4l20.4-18.1c4.5,1.6,9,2.5,13.7,2.5
		c22.8,0,41.3-18.5,41.3-41.3c0-3-0.5-6-1.2-9l20.4-18.2l-3.4-5.8C210.1,45.7,188.2,33,164.7,33c-1.6,0-3.1,0.1-4.6,0.2L132.2,5.3
		L70.8,56.5l11.4,15.2l-54.3,77.5C12.1,151.7,0,165.2,0,181.7c0,12.4,6.9,23.1,17,28.7l68.3,128.2h-28c-13.7,0-24.3,11.1-24.3,24.8
		v8.3H0v49.5h24.8V512h49.5v-90.8h363.4V512h49.5v-90.8H512v-49.5H404.6z M166.9,123.8l22-19.6C186.7,114.7,177.8,122.8,166.9,123.8
		z M164.7,49.6c15.4,0,29.8,7.2,39.2,19.3L130,134.4c-9.5-9.3-14.9-21.9-14.9-35.3C115.1,71.8,137.4,49.6,164.7,49.6z M247.7,198.2
		c0-4.6,3.7-8.3,8.3-8.3h231.2c4.6,0,8.3,3.7,8.3,8.3v107.4H247.7V198.2z M256,338.6c-4.6,0-8.3-3.7-8.3-8.3v-8.3h247.7v8.3
		c0,4.6-3.7,8.3-8.3,8.3h-82.6h-66.1H256z M388.1,355.1v16.5h-33v-16.5H388.1z M92.6,85.5l1.9,2.5l-38.3,70.1
		c-2.8-2.8-6.2-5-9.8-6.7L92.6,85.5z M37.8,214.2c3.4-0.5,6.6-1.5,9.6-3l78.2,127.3h-21.6L37.8,214.2z M495.5,404.6h-8.3h-49.5H74.3
		H24.8h-8.3v-16.5h16h165.2h140.9h66.1h90.8V404.6z"/>
	<rect x="239.5" y="140.4" class="st0" width="264.3" height="16.5"/>
	<path class="st0" d="M355.1,0H289v132.1h66.1V0z M322.1,107.4c-4.6,0-8.3-3.7-8.3-8.3c0-4.6,3.7-8.3,8.3-8.3c4.6,0,8.3,3.7,8.3,8.3
		C330.3,103.7,326.6,107.4,322.1,107.4z M338.6,66.1h-33V16.5h33V66.1z"/>
	<path class="st0" d="M429.4,0h-66.1v132.1h66.1V0z M396.4,107.4c-4.6,0-8.3-3.7-8.3-8.3c0-4.6,3.7-8.3,8.3-8.3
		c4.6,0,8.3,3.7,8.3,8.3C404.6,103.7,400.9,107.4,396.4,107.4z M412.9,66.1h-33V16.5h33V66.1z"/>
	<path class="st0" d="M503.7,0h-66.1v132.1h66.1V0z M470.7,107.4c-4.6,0-8.3-3.7-8.3-8.3c0-4.6,3.7-8.3,8.3-8.3
		c4.6,0,8.3,3.7,8.3,8.3C479,103.7,475.3,107.4,470.7,107.4z M487.2,66.1h-33V16.5h33V66.1z"/>
</g>
</svg>
