<?xml version="1.0" encoding="utf-8"?>
<!-- Generator: Adobe Illustrator 22.0.1, SVG Export Plug-In . SVG Version: 6.00 Build 0)  -->
<svg version="1.1" id="_x31_" xmlns="http://www.w3.org/2000/svg" xmlns:xlink="http://www.w3.org/1999/xlink" x="0px" y="0px"
	 viewBox="0 0 512 512" style="enable-background:new 0 0 512 512;" xml:space="preserve">
<style type="text/css">
	.st0{fill:#005E98;}
</style>
<path class="st0" d="M487.2,56.5l-0.6-1.2c0,0,0,0,0-0.1c-1-2.1-2.3-4-3.8-5.8c-0.3-0.4-0.6-0.8-0.9-1.1c-1.5-1.6-3.3-3.1-5.4-4.4
	c-0.4-0.2-0.8-0.5-1.2-0.7c-0.8-0.5-1.6-1-2.5-1.5l-0.1,0.2c-34.1-16.2-112.4,6.4-152.1,19.8c-2.8-1.3-5.6-2.6-8.4-3.9
	C223,17.8,83.1-25.7,63,18.7l0,0.1c0,0,0,0,0,0L62.5,20c-27.3,60.5-28,129.1-4.1,189.5c-5.7,6.6-10,12.8-12.9,18.6
	c-27.7,10.7-42,23.9-42,39.3v1.4C3.5,402.9,112.6,512,246.7,512c134.1,0,243.2-109.1,243.2-243.2v-1.4c0-3.8-1-7.6-2.8-11.2
	C515.3,193.4,516,120.5,487.2,56.5z M81.8,27.2c6.4-14.2,90.5-9.6,221.8,49.6c6.1,2.8,12.1,5.6,18.1,8.5c4.9,2.3,9.8,4.7,14.6,7.1
	c3.5,1.7,6.8,3.5,10.2,5.2c4.7,2.4,9.4,4.8,14,7.3c3.7,2,7.3,4,10.9,6c4,2.2,8,4.4,11.9,6.6c7.3,4.2,14.5,8.5,21.3,12.8
	c-5.6,3.8-11.4,7.8-17.7,11.8c-1,0.6-2,1.3-3,1.9c-1.2,0.8-2.6,1.6-3.9,2.4c-4.8,3-9.7,5.9-14.7,8.9c-1.6,0.9-3.3,1.9-4.9,2.8
	c-5.5,3.1-11.1,6.3-16.9,9.4c-1.7,0.9-3.4,1.8-5.1,2.7c-0.1,0.1-0.2,0.1-0.3,0.2c-6,3.2-12.1,6.3-18.3,9.4c-1.1,0.6-2.3,1.1-3.4,1.7
	c-16.8-6.4-33.8-13.5-50.5-21C134.6,101.3,75.4,41.4,81.8,27.2z M71.2,55.2c29.8,42.4,118.4,93.5,186.2,124.1
	c11.2,5,22.5,9.8,33.7,14.3c-2.5,1.2-4.9,2.3-7.4,3.5c-16.1,7.3-32.2,14-47.8,20c-0.2,0.1-0.4,0.2-0.6,0.2
	c-7.2,2.8-14.4,5.4-21.4,7.9c-3.8,1.3-7.4,2.5-11.1,3.8c-3.1,1-6.2,2.1-9.3,3.1c-5.7,1.8-11.2,3.5-16.6,5.1c-0.7,0.2-1.3,0.4-2,0.6
	c-25.3,7.3-46.8,11.7-64.1,13.9c-3.1-1.2-6-2.3-8.5-3.4c-4.1-5.8-7.9-12-11.5-18.4c-0.4-0.7-0.8-1.4-1.2-2.1
	c-3.6-6.5-6.9-13.3-9.9-20.2l-0.2-0.4C59.2,159.2,56.1,105.3,71.2,55.2z M246.7,491.4c-113,0-206.6-84.6-220.8-193.8
	c0.6,0.4,1.5,0.7,2.2,1.1c2.2,1.2,4.5,2.4,7,3.6c1.4,0.7,2.9,1.3,4.4,2c3,1.3,6,2.5,9.2,3.7c1.1,0.4,2.3,0.8,3.5,1.2
	c4.2,1.5,8.5,2.8,12.9,4.1c0.4,0.1,0.8,0.2,1.2,0.4c5.8,1.6,11.7,3.2,17.6,4.5l0,0l2.8,0.6l0.5,0.1c5.1,1.1,10.4,2.2,15.9,3.2
	c0,0,0.1,0,0.1,0c0.1,0,0.1,0,0.2,0c0.2,0,0.3,0.1,0.5,0.1c1.1,0.2,2.3,0.4,3.4,0.6c4.5,0.8,9.1,1.6,13.8,2.3
	c1.8,0.3,3.6,0.5,5.4,0.8c4.3,0.6,8.6,1.2,13,1.8c1.8,0.2,3.6,0.4,5.4,0.6c4.6,0.5,9.2,1,14,1.5c1.7,0.2,3.5,0.3,5.2,0.5
	c4.9,0.4,9.8,0.8,14.8,1.2c1.7,0.1,3.4,0.2,5.1,0.4c5.1,0.3,10.2,0.6,15.4,0.9c1.7,0.1,3.5,0.2,5.2,0.3c5.2,0.2,10.5,0.4,15.8,0.5
	c1.7,0.1,3.4,0.1,5.2,0.2c6.9,0.1,13.9,0.2,21,0.2c89.2,0,170.3-12.1,211.7-31.6l2.4-1.1l1.6-2.2c0.1-0.1,0.1-0.2,0.2-0.3
	c2-2.7,3.9-5.4,5.7-8.2C457.3,403.1,362.1,491.4,246.7,491.4z M485.1,191.7c-0.1,0.5-0.2,0.9-0.3,1.4c-0.7,4-1.4,8-2.3,11.9
	c-0.3,1.5-0.7,2.9-1.1,4.4c-0.7,2.9-1.5,5.9-2.3,8.8c-0.5,1.7-1,3.3-1.5,5c-0.8,2.7-1.7,5.3-2.6,8c-0.6,1.7-1.3,3.4-1.9,5.1
	c-1,2.6-2,5.1-3.1,7.7c-0.7,1.7-1.4,3.4-2.2,5c-0.7,1.6-1.6,3.2-2.3,4.8c-2.3,4.7-4.7,9.3-7.3,13.8c-0.3,0.6-0.7,1.2-1,1.8
	c-0.2,0.3-0.3,0.6-0.5,0.8c-3,5-6.1,10-9.4,14.6c-29.3,13.1-80.6,22.6-139.6,26.6c-19.7,1.3-40.2,2-61,2c-6.8,0-13.5-0.1-20.2-0.2
	c-1.6,0-3.1-0.1-4.7-0.1c-5.1-0.1-10.3-0.3-15.4-0.5c-1.7-0.1-3.3-0.2-4.9-0.2c-4.9-0.2-9.8-0.5-14.6-0.8c-1.7-0.1-3.5-0.2-5.2-0.4
	c-4.6-0.3-9.2-0.7-13.7-1.1c-1.9-0.2-3.8-0.3-5.7-0.5c-4.2-0.4-8.3-0.8-12.4-1.3c-2.1-0.2-4.2-0.5-6.3-0.7
	c-3.7-0.4-7.3-0.9-10.8-1.4c-2.3-0.3-4.6-0.6-6.9-1c-3.3-0.5-6.5-1-9.7-1.6c-2.3-0.4-4.5-0.7-6.7-1.1c-3.1-0.6-6.2-1.2-9.2-1.8
	c-1.7-0.3-3.5-0.7-5.2-1.1c-3.4-4-6.6-8.2-9.7-12.5c-1.1-1.5-2.1-3.1-3.1-4.6c-2-2.8-3.9-5.6-5.7-8.5c-0.2-0.2-0.3-0.5-0.4-0.8
	c9.4,1,20.4,0.8,32.4-0.5l0.5,0.2l2.4-0.3c42.9-5.1,101-22.6,161.8-48.5c6.5-2.8,12.9-5.5,19-8.3c5-2.2,10.1-4.6,15.2-7.1
	c3.4-1.6,6.8-3.2,10.1-4.8l0.1,0l4-2c1.7-0.8,3.3-1.7,5-2.5c2.4-1.2,4.7-2.4,7.1-3.6c4-2,7.9-4.1,11.7-6.1c1.6-0.9,3.3-1.7,5-2.6
	c5.6-3,11.1-6,16.5-9.1c0.4-0.2,0.8-0.5,1.3-0.7c4.9-2.8,9.8-5.6,14.5-8.4c1.4-0.9,2.8-1.7,4.3-2.6c3.7-2.2,7.3-4.4,10.8-6.7
	c1.6-1,3.2-2,4.7-3c3.4-2.2,6.6-4.3,9.9-6.5c1.4-0.9,2.8-1.9,4.2-2.8c4.4-3,8.7-6.1,12.8-9.1l11.8-8.7l-0.5-0.3
	c16.1-12.7,29.3-25.4,37.8-37.4c0,0.1,0.1,0.2,0.1,0.3c0.2,0.7,0.4,1.4,0.6,2.2c1.1,3.7,2.1,7.4,2.9,11.1c0.3,1.5,0.6,3,1,4.5
	c0.6,2.9,1.2,5.9,1.7,8.8c0.3,1.7,0.5,3.5,0.8,5.2c0.4,2.8,0.8,5.6,1.1,8.3c0.2,1.8,0.4,3.6,0.5,5.4c0.2,2.8,0.4,5.5,0.5,8.3
	c0.1,1.8,0.2,3.6,0.2,5.3c0.1,2.8,0,5.7,0,8.5c0,1.7,0,3.4-0.1,5c-0.1,3.2-0.3,6.3-0.6,9.5c-0.1,1.3-0.2,2.7-0.3,4
	C486.4,182.8,485.8,187.2,485.1,191.7z"/>
</svg>
