<?xml version="1.0" encoding="utf-8"?>
<!-- Generator: Adobe Illustrator 22.0.1, SVG Export Plug-In . SVG Version: 6.00 Build 0)  -->
<svg version="1.1" id="_x31_" xmlns="http://www.w3.org/2000/svg" xmlns:xlink="http://www.w3.org/1999/xlink" x="0px" y="0px"
	 viewBox="0 0 512 512" style="enable-background:new 0 0 512 512;" xml:space="preserve">
<style type="text/css">
	.st0{fill:#005E98;}
</style>
<g>
	<path class="st0" d="M277.5,59.7L234.8,0H51.2v34.1H25.6v34.1H0V512h17.1h477.9H512V145.1V128v-17.1V93.9V59.7H277.5z M494.9,494.9
		H17.1V85.3h8.5h149.2l42.7,59.7h0.1l40,55.9c1.7,2.3,4.3,3.6,6.9,3.6v0.3h230.4V494.9z M494.9,128H226.3l-40.2-56.2l0,0l-2.5-3.6
		H42.7V51.2h8.5h149.2l42.7,59.7h251.9V128z"/>
	<path class="st0" d="M230.4,469.3h238.9V298.7H230.4V469.3z M247.5,315.7h204.8v136.5H247.5V315.7z"/>
	<rect x="281.6" y="341.3" class="st0" width="136.5" height="17.1"/>
	<rect x="281.6" y="375.5" class="st0" width="136.5" height="17.1"/>
	<rect x="281.6" y="409.6" class="st0" width="136.5" height="17.1"/>
</g>
</svg>
