<?xml version="1.0" encoding="utf-8"?>
<!-- Generator: Adobe Illustrator 22.0.1, SVG Export Plug-In . SVG Version: 6.00 Build 0)  -->
<svg version="1.1" id="_x31_" xmlns="http://www.w3.org/2000/svg" xmlns:xlink="http://www.w3.org/1999/xlink" x="0px" y="0px"
	 viewBox="0 0 512 512" style="enable-background:new 0 0 512 512;" xml:space="preserve">
<style type="text/css">
	.st0{fill:#005E98;}
</style>
<g>
	<path class="st0" d="M194.1,404.4c2.9,0,5.8-1.3,5.8-3.7v-56.2c0-4.3-2.9-5.8-5.8-5.8c-4.2,0-6.2,0.9-9.2,6.2L173.9,365l-11.1-20.1
		c-3-5.3-4.9-6.2-9.1-6.2c-3,0-5.8,1.5-5.8,5.8v56.2c0,2.4,2.9,3.7,5.8,3.7c2.9,0,5.8-1.3,5.8-3.7v-39.4l10.3,19.4
		c1,1.8,2.4,2.3,3.9,2.3s3-0.5,4-2.3l10.5-18.7v38.7C188.3,403.1,191.1,404.4,194.1,404.4z"/>
	<path class="st0" d="M257.9,348.9c2.3,0,3.7-2.4,3.7-5.2c0-2.4-1.2-5-3.7-5h-32c-2.6,0-5.1,1.3-5.1,3.7v58.3c0,2.4,2.5,3.7,5.1,3.7
		h32c2.5,0,3.7-2.6,3.7-5c0-2.8-1.3-5.2-3.7-5.2h-25.4V376h13.7c2.5,0,3.7-2.4,3.7-4.5c0-2.4-1.3-4.7-3.7-4.7h-13.7v-18H257.9z"/>
	<path class="st0" d="M290.2,400.7v-36.1l19.3,36.1c1.5,2.8,4,3.7,6.7,3.7c2.9,0,5.8-1.3,5.8-3.7v-58.4c0-2.5-3-3.6-5.8-3.6
		c-3,0-5.8,1.1-5.8,3.6v36.1l-17.3-33.5c-2.8-5.3-4.5-6.2-8.7-6.2c-3,0-5.8,1.2-5.8,3.7v58.3c0,2.4,2.9,3.7,5.8,3.7
		C287.2,404.4,290.2,403.1,290.2,400.7z"/>
	<path class="st0" d="M348.5,338.6c-3,0-5.8,1.1-5.8,3.6v42.1c0,15,9.4,20.6,21.6,20.6c12,0,21.6-5.6,21.6-20.6v-42.1
		c0-2.5-3-3.6-5.8-3.6c-3,0-5.8,1.1-5.8,3.6h0v42.1c0,7-3.7,10.3-9.9,10.3s-9.9-3.3-9.9-10.3v-42.1
		C354.4,339.7,351.4,338.6,348.5,338.6z"/>
	<path class="st0" d="M397.3,422.1h-37.8h-5H146.3c-4.2,0-7.6,3.4-7.6,7.6c0,4.2,3.4,7.6,7.6,7.6h208.3h5h37.8
		c4.2,0,7.6-3.4,7.6-7.6C404.8,425.5,401.5,422.1,397.3,422.1z"/>
	<path class="st0" d="M397.3,306.2h-251c-4.2,0-7.6,3.4-7.6,7.6s3.4,7.6,7.6,7.6h251c4.2,0,7.6-3.4,7.6-7.6S401.5,306.2,397.3,306.2
		z"/>
	<path class="st0" d="M393,212.1h-7.4c-2.8-52.3-41.1-95.3-91.1-105.5l1.5-14c0.5-4.6-1-9.1-4.1-12.6c-3.1-3.4-7.5-5.4-12.1-5.4
		h-16.2c-4.6,0-9,2-12.1,5.4c-3.1,3.4-4.6,8-4.1,12.6l1.5,14c-50,10.2-88.3,53.2-91.1,105.5h-7.4c-6.5,0-11.8,5.3-11.8,11.8v15.7
		c0,6.5,5.3,11.8,11.8,11.8H393c6.5,0,11.8-5.3,11.8-11.8v-15.7C404.8,217.4,399.6,212.1,393,212.1z M185.8,212.1h-6.2h-6.6
		c3.2-51.6,46.3-92.6,98.7-92.6c52.4,0,95.5,41,98.7,92.6H185.8z"/>
	<path class="st0" d="M451.5,0H92C81.4,0,72.7,8.7,72.7,19.3V33h-7.1C52.6,33,42,43.6,42,56.7s10.6,23.6,23.6,23.6h7.1v32.5h-7.1
		c-13,0-23.6,10.6-23.6,23.6c0,13,10.6,23.6,23.6,23.6h7.1v32.5h-7.1c-13,0-23.6,10.6-23.6,23.6c0,13,10.6,23.6,23.6,23.6h7.1v32.5
		h-7.1c-13,0-23.6,10.6-23.6,23.6c0,13,10.6,23.6,23.6,23.6h7.1V352h-7.1c-13,0-23.6,10.6-23.6,23.6c0,13,10.6,23.6,23.6,23.6h7.1
		v32.5h-7.1c-13,0-23.6,10.6-23.6,23.6S52.6,479,65.6,479h7.1v13.7c0,10.7,8.7,19.3,19.3,19.3h359.4c10.7,0,19.3-8.7,19.3-19.3V19.3
		C470.8,8.7,462.1,0,451.5,0z M72.7,65.1h-7.1c-4.7,0-8.5-3.8-8.5-8.5c0-4.7,3.8-8.5,8.5-8.5h7.1V65.1z M72.7,144.9h-7.1
		c-4.7,0-8.5-3.8-8.5-8.5c0-4.7,3.8-8.5,8.5-8.5h7.1V144.9z M72.7,224.6h-7.1c-4.7,0-8.5-3.8-8.5-8.5c0-4.7,3.8-8.5,8.5-8.5h7.1
		V224.6z M72.7,304.3h-7.1c-4.7,0-8.5-3.8-8.5-8.5c0-4.7,3.8-8.5,8.5-8.5h7.1V304.3z M72.7,384h-7.1c-4.7,0-8.5-3.8-8.5-8.5
		c0-4.7,3.8-8.5,8.5-8.5h7.1V384z M72.7,463.8h-7.1c-4.7,0-8.5-3.8-8.5-8.5c0-4.7,3.8-8.5,8.5-8.5h7.1V463.8z M455.6,492.7
		c0,2.3-1.9,4.2-4.1,4.2H92c-2.3,0-4.1-1.9-4.1-4.2V19.3c0-2.3,1.9-4.1,4.1-4.1h359.4c2.3,0,4.1,1.9,4.1,4.1V492.7z"/>
</g>
</svg>
