<?xml version="1.0" encoding="utf-8"?>
<!-- Generator: Adobe Illustrator 22.0.1, SVG Export Plug-In . SVG Version: 6.00 Build 0)  -->
<svg version="1.1" id="_x31_" xmlns="http://www.w3.org/2000/svg" xmlns:xlink="http://www.w3.org/1999/xlink" x="0px" y="0px"
	 viewBox="0 0 512 512" style="enable-background:new 0 0 512 512;" xml:space="preserve">
<style type="text/css">
	.st0{fill:#005E98;}
</style>
<g>
	<path class="st0" d="M405.7,0h-17.1h-59.9H72.1v145.5v171.1v145.3h34.2V512l34.2-22.8l34.2,22.8v-50.2h153.9h59.9h17.1
		c18.9,0,34.2-15.3,34.2-34.2V316.5V145.5V34.2C439.9,15.3,424.5,0,405.7,0z M328.7,444.7c0,0-153.9,0-153.9,0h-68.4H89.2V316.5
		h239.5V444.7z M328.7,188.1c-4.7,0-8.6,3.8-8.6,8.6s3.8,8.6,8.6,8.6v34.2c-4.7,0-8.6,3.8-8.6,8.6c0,4.7,3.8,8.6,8.6,8.6v34.2
		c-4.7,0-8.6,3.8-8.6,8.6c0,0,0,0.1,0,0.1h-34.2c0,0,0-0.1,0-0.1c0-4.8-3.8-8.6-8.6-8.6c-4.7,0-8.6,3.8-8.6,8.6c0,0,0,0.1,0,0.1
		h-34.2c0,0,0-0.1,0-0.1c0-4.8-3.8-8.6-8.6-8.6s-8.6,3.8-8.6,8.6c0,0,0,0.1,0,0.1h-34.2c0,0,0-0.1,0-0.1c0-4.8-3.8-8.6-8.6-8.6
		c-4.7,0-8.6,3.8-8.6,8.6c0,0,0,0.1,0,0.1H132c0,0,0-0.1,0-0.1c0-4.8-3.8-8.6-8.6-8.6c-4.7,0-8.6,3.8-8.6,8.6c0,0,0,0.1,0,0.1H89.2
		v-25.7v-51.3V171v-8.5h8.1c-4.5,0.2-8.1,3.9-8.1,8.5c0,4.7,3.8,8.6,8.6,8.6c4.7,0,8.6-3.8,8.6-8.6c0-4.6-3.6-8.2-8.1-8.5h50.4
		c-4.5,0.2-8.1,3.9-8.1,8.5c0,4.7,3.8,8.6,8.6,8.6c4.7,0,8.6-3.8,8.6-8.6c0-4.6-3.6-8.2-8.1-8.5H200c-4.5,0.2-8.1,3.9-8.1,8.5
		c0,4.7,3.8,8.6,8.6,8.6c4.7,0,8.6-3.8,8.6-8.6c0-4.6-3.6-8.2-8.1-8.5h50.4c-4.5,0.2-8.1,3.9-8.1,8.5c0,4.7,3.8,8.6,8.6,8.6
		c4.7,0,8.6-3.8,8.6-8.6c0-4.6-3.6-8.2-8.1-8.5h50.4c-4.5,0.2-8.1,3.9-8.1,8.5c0,4.7,3.8,8.6,8.6,8.6c4.7,0,8.6-3.8,8.6-8.6
		c0-4.6-3.6-8.2-8.1-8.5h25.2V188.1z M328.7,145.5H89.2V17.1h239.5V145.5z M422.8,427.6c0,9.4-7.7,17.1-17.1,17.1h-17.1V316.5h34.2
		V427.6z M422.8,299.4h-34.2V162.6h16.7c-4.5,0.2-8.1,3.9-8.1,8.5c0,4.7,3.8,8.6,8.6,8.6c4.7,0,8.6-3.8,8.6-8.6
		c0-4.6-3.6-8.2-8.1-8.5h16.7V299.4z M422.8,145.5h-34.2V17.1h17.1c9.4,0,17.1,7.7,17.1,17.1V145.5z"/>
	<circle class="st0" cx="123.4" cy="196.7" r="8.6"/>
	
		<ellipse transform="matrix(0.9871 -0.1602 0.1602 0.9871 -29.2494 30.5303)" class="st0" cx="174.7" cy="196.7" rx="8.6" ry="8.6"/>
	
		<ellipse transform="matrix(0.3827 -0.9239 0.9239 0.3827 -42.1656 330.2685)" class="st0" cx="226.1" cy="196.7" rx="8.6" ry="8.6"/>
	<circle class="st0" cx="277.4" cy="196.7" r="8.6"/>
	
		<ellipse transform="matrix(0.7071 -0.7071 0.7071 0.7071 -128.5863 134.2552)" class="st0" cx="97.8" cy="222.3" rx="8.6" ry="8.6"/>
	<circle class="st0" cx="149.1" cy="222.3" r="8.6"/>
	<ellipse transform="matrix(0.9871 -0.1602 0.1602 0.9871 -42.5733 19.1943)" class="st0" cx="97.8" cy="273.7" rx="8.6" ry="8.6"/>
	<circle class="st0" cx="149.1" cy="273.7" r="8.6"/>
	<circle class="st0" cx="123.4" cy="248" r="8.6"/>
	
		<ellipse transform="matrix(0.7071 -0.7071 0.7071 0.7071 -124.1841 196.1994)" class="st0" cx="174.7" cy="248" rx="8.6" ry="8.6"/>
	
		<ellipse transform="matrix(0.7071 -0.7071 0.7071 0.7071 -98.5259 206.8274)" class="st0" cx="200.4" cy="222.3" rx="8.6" ry="8.6"/>
	<circle class="st0" cx="251.7" cy="222.3" r="8.6"/>
	
		<ellipse transform="matrix(0.3827 -0.9239 0.9239 0.3827 -129.12 354.0811)" class="st0" cx="200.4" cy="273.7" rx="8.6" ry="8.6"/>
	<circle class="st0" cx="251.7" cy="273.7" r="8.6"/>
	<ellipse transform="matrix(0.9732 -0.2298 0.2298 0.9732 -50.932 58.5716)" class="st0" cx="226.1" cy="248" rx="8.6" ry="8.6"/>
	<circle class="st0" cx="277.4" cy="248" r="8.6"/>
	<ellipse transform="matrix(0.9732 -0.2298 0.2298 0.9732 -42.9781 75.5708)" class="st0" cx="303" cy="222.3" rx="8.6" ry="8.6"/>
	<ellipse transform="matrix(0.9871 -0.1602 0.1602 0.9871 -39.9228 52.0742)" class="st0" cx="303" cy="273.7" rx="8.6" ry="8.6"/>
	<ellipse transform="matrix(0.9732 -0.2298 0.2298 0.9732 -40.2326 99.151)" class="st0" cx="405.7" cy="222.3" rx="8.6" ry="8.6"/>
	
		<ellipse transform="matrix(0.9871 -0.1602 0.1602 0.9871 -38.5976 68.5141)" class="st0" cx="405.7" cy="273.7" rx="8.6" ry="8.6"/>
</g>
</svg>
