<svg version="1.1" id="_x31_" xmlns="http://www.w3.org/2000/svg" x="0" y="0" viewBox="0 0 512 512" xml:space="preserve"><style>.st0{fill:#005e98}</style><path class="st0" d="M443.7 64H401c-4.7 0-8.5 3.8-8.5 8.5v34.1c0 4.7 3.8 8.5 8.5 8.5h42.7c4.7 0 8.5-3.8 8.5-8.5V72.5c.1-4.7-3.8-8.5-8.5-8.5z"/><path class="st0" d="M486.4 132.3V55.5c0-14.1-11.5-25.6-25.6-25.6H25.6C11.5 29.9 0 41.3 0 55.5v162.1c0 14.1 11.5 25.6 25.6 25.6h8.5V424c-10.2 3.6-17 13.2-17.1 24v25.6c0 4.7 3.8 8.5 8.5 8.5h68.3c4.7 0 8.5-3.8 8.5-8.5V448c0-10.8-6.9-20.4-17.1-24v-10.1h315.7V424c-10.2 3.6-17 13.2-17.1 24v25.6c0 4.7 3.8 8.5 8.5 8.5h68.3c4.7 0 8.5-3.8 8.5-8.5V448c0-10.8-6.9-20.4-17.1-24V243.2h8.5c14.1 0 25.6-11.5 25.6-25.6v-8.5c14.1 0 25.6-11.5 25.6-25.6v-25.6c.3-14.2-11.2-25.6-25.3-25.6zM25.6 226.1c-4.7 0-8.5-3.8-8.5-8.5V55.5c0-4.7 3.8-8.5 8.5-8.5h42.7v179.2H25.6zm42.7 17.1v179.2H51.2V243.2h17.1zM375.5 46.9h85.3c4.7 0 8.5 3.8 8.5 8.5v76.8h-93.9V46.9zm-290.2 0h273.1v42.7H85.3V46.9zm0 59.8h273.1v42.7h-17.1v-17.1c0-4.7-3.8-8.5-8.5-8.5H110.9c-4.7 0-8.5 3.8-8.5 8.5v17.1H85.3v-42.7zm273.1 59.7v59.7h-17.1v-59.7h17.1zm-34.1-25.6V320c0 4.7-3.8 8.5-8.5 8.5H128c-4.7 0-8.5-3.8-8.5-8.5V140.8h204.8zm-239 25.6h17.1v59.7H85.3v-59.7zm315.8 230.4H85.3v-17.1H401v17.1zm0-34.1H85.3V243.2h17.1V320c0 14.1 11.5 25.6 25.6 25.6h187.7c14.1 0 25.6-11.5 25.6-25.6v-76.8H401v119.5zm17 59.7V243.2h17.1v179.2h-17.1zm51.2-204.8c0 4.7-3.8 8.5-8.5 8.5h-85.3V209h93.9v8.6z"/><path class="st0" d="M150.4 174.3c2.1.9 4.4.9 6.5 0 1-.4 2-1 2.8-1.8 1.6-1.6 2.4-3.8 2.5-6.1 0-1.1-.2-2.2-.7-3.2-.8-2.1-2.5-3.8-4.6-4.6-2.1-.9-4.4-.9-6.5 0-2.1.8-3.8 2.5-4.6 4.6-.4 1-.7 2.1-.7 3.2 0 2.3.9 4.4 2.5 6.1.8.7 1.7 1.3 2.8 1.8zm32.6-.8c.4.3.9.6 1.5.8.5.2 1 .4 1.5.5.6.1 1.1.2 1.7.2 2.3 0 4.4-.9 6.1-2.5.4-.4.7-.8 1-1.3.3-.5.6-1 .8-1.5.2-.5.4-1 .5-1.5.1-.6.2-1.1.2-1.7 0-1.1-.2-2.2-.7-3.2-.4-1-1-2-1.8-2.8-3.4-3.2-8.7-3.2-12.1 0-.8.8-1.4 1.8-1.8 2.8-.4 1-.7 2.1-.7 3.2 0 2.3.9 4.4 2.5 6.1.4.2.8.5 1.3.9zm38.7 1.4h.2c4.7 0 8.5-3.7 8.5-8.4v-.2c0-1.1-.2-2.2-.7-3.2-.4-1-1-2-1.8-2.8-3.4-3.2-8.7-3.2-12.1 0-.8.8-1.4 1.8-1.8 2.8-.4 1-.7 2.1-.7 3.2 0 4.8 3.7 8.6 8.4 8.6zm34.1 0h.2c.6 0 1.1-.1 1.7-.2.5-.1 1.1-.3 1.5-.5.5-.2 1.1-.4 1.5-.8.4-.3.9-.7 1.3-1 1.6-1.6 2.4-3.8 2.5-6.1 0-1.1-.2-2.2-.7-3.2-.4-1-1-2-1.8-2.8-3.4-3.2-8.7-3.2-12.1 0-.8.8-1.4 1.8-1.8 2.8-.4 1-.7 2.1-.7 3.2 0 4.8 3.8 8.6 8.4 8.6zm29.6-1.4c.5.3 1 .6 1.5.8.5.2 1 .4 1.5.5.6.1 1.1.2 1.7.2.6 0 1.1-.1 1.7-.2.5-.1 1.1-.3 1.5-.5.5-.2 1-.4 1.5-.8.5-.3.9-.7 1.4-1 1.6-1.6 2.4-3.8 2.5-6.1 0-1.1-.2-2.2-.7-3.2-.4-1-1-2-1.8-2.8-.4-.3-.9-.7-1.4-1-.4-.3-.9-.6-1.5-.8-.5-.2-1-.4-1.5-.5-2.8-.6-5.7.3-7.8 2.3-.8.8-1.4 1.8-1.8 2.8-.4 1-.7 2.1-.7 3.2 0 2.3.9 4.4 2.5 6.1.5.3.9.6 1.4 1zm-123.1 20.2c.1.5.3 1.1.5 1.5.2.5.4 1.1.8 1.5.3.4.7.9 1 1.3.4.4.8.7 1.3 1 .5.3 1 .6 1.5.8.5.2 1 .4 1.5.5.6.1 1.1.2 1.7.2.6 0 1.1-.1 1.7-.2.5-.1 1.1-.3 1.5-.5.5-.2 1.1-.4 1.5-.8.4-.3.9-.7 1.3-1 3.4-3.3 3.4-8.8.1-12.1-3.3-3.4-8.8-3.4-12.1-.1-1.6 1.6-2.6 3.8-2.5 6.1 0 .7.1 1.2.2 1.8zm34.1 0c.1.5.3 1.1.5 1.5.2.5.4 1.1.8 1.5.3.4.7.9 1 1.3.4.4.8.7 1.3 1 .5.3 1 .6 1.5.8.5.2 1 .4 1.5.5.6.1 1.1.2 1.7.2.6 0 1.1-.1 1.7-.2.5-.1 1.1-.3 1.5-.5.5-.2 1.1-.4 1.5-.8.4-.3.9-.7 1.3-1 3.4-3.3 3.4-8.8.1-12.1-3.3-3.4-8.8-3.4-12.1-.1-1.6 1.6-2.6 3.8-2.5 6.1.1.7.1 1.2.2 1.8zm34.2 0c.1.5.3 1.1.5 1.5.2.5.4 1.1.8 1.5.3.4.7.9 1 1.3 1.6 1.6 3.8 2.4 6.1 2.5.6 0 1.1-.1 1.7-.2.5-.1 1.1-.3 1.5-.5.5-.2 1.1-.4 1.5-.8.4-.3.9-.7 1.3-1 3.4-3.3 3.4-8.8.1-12.1-3.3-3.4-8.8-3.4-12.1-.1-1.6 1.6-2.6 3.8-2.5 6.1-.1.7 0 1.2.1 1.8zm36.4 4.4c3.3 3.3 8.8 3.3 12.1 0 3.3-3.3 3.3-8.8 0-12.1-.8-.8-1.8-1.4-2.8-1.8-2.1-.9-4.4-.9-6.5 0-1 .4-2 1-2.8 1.8-3.3 3.3-3.3 8.7 0 12.1z"/></svg>