<?xml version="1.0" encoding="utf-8"?>
<!-- Generator: Adobe Illustrator 22.0.1, SVG Export Plug-In . SVG Version: 6.00 Build 0)  -->
<svg version="1.1" id="Capa_1" xmlns="http://www.w3.org/2000/svg" xmlns:xlink="http://www.w3.org/1999/xlink" x="0px" y="0px"
	 viewBox="0 0 512 512" style="enable-background:new 0 0 512 512;" xml:space="preserve">
<style type="text/css">
	.st0{fill:url(#SVGID_1_);}
	.st1{fill:url(#SVGID_2_);}
	.st2{fill:url(#SVGID_3_);}
	.st3{fill:url(#SVGID_4_);}
	.st4{fill:url(#SVGID_5_);}
	.st5{fill:url(#SVGID_6_);}
</style>
<g>
	<linearGradient id="SVGID_1_" gradientUnits="userSpaceOnUse" x1="46.6804" y1="113.5976" x2="46.6804" y2="382.2349">
		<stop  offset="0" style="stop-color:#FDB620"/>
		<stop  offset="1" style="stop-color:#F8931F"/>
	</linearGradient>
	<path class="st0" d="M54.5,133.9H38.9c-4.3,0-7.8,3.5-7.8,7.8s3.5,7.8,7.8,7.8h15.6c4.3,0,7.8-3.5,7.8-7.8S58.8,133.9,54.5,133.9z"
		/>
	<linearGradient id="SVGID_2_" gradientUnits="userSpaceOnUse" x1="93.3618" y1="113.5976" x2="93.3618" y2="382.2349">
		<stop  offset="0" style="stop-color:#FDB620"/>
		<stop  offset="1" style="stop-color:#F8931F"/>
	</linearGradient>
	<path class="st1" d="M85.6,149.4h15.6c4.3,0,7.8-3.5,7.8-7.8c0-4.3-3.5-7.8-7.8-7.8H85.6c-4.3,0-7.8,3.5-7.8,7.8
		S81.3,149.4,85.6,149.4z"/>
	<linearGradient id="SVGID_3_" gradientUnits="userSpaceOnUse" x1="256" y1="113.5976" x2="256" y2="382.2349">
		<stop  offset="0" style="stop-color:#FDB620"/>
		<stop  offset="1" style="stop-color:#F8931F"/>
	</linearGradient>
	<path class="st2" d="M507.8,269.3C507.8,269.3,507.8,269.3,507.8,269.3l0.1,0c2.4-0.8,4.1-3,4.1-5.7c0-3.3-2.7-6-6-6
		c-0.7,0-1.3,0.1-1.9,0.3v0l-27.9,9.3v-29.1l31.6-10.5c0,0,0,0,0,0l0.1,0c2.4-0.8,4.1-3,4.1-5.6c0-3.3-2.7-6-6-6
		c-0.7,0-1.3,0.1-1.9,0.3l-27.9,9.3v-39.4h11.9v-83.4H342.3h-56.8H31.1C14,102.7,0,116.7,0,133.9V375c0,4.3,3.5,7.8,7.8,7.8h31.1
		c4.3,0,7.8-3.5,7.8-7.8V242.8h31.1v77.8c0,17.2,12.6,31.1,28,31.1h132.1v25.2h11.9c0,3.3,2.7,6,6,6h23.8c3.3,0,6-2.7,6-6H327
		c0.8,3.4,3.9,6,7.6,6h31.1c3.7,0,6.7-2.5,7.6-6h55.3c0,3.3,2.7,6,6,6h23.8c3.3,0,6-2.7,6-6h11.9v-55.3l31.6-10.5c0,0,0,0,0,0l0.1,0
		c2.4-0.8,4.1-3,4.1-5.6c0-3.3-2.7-6-6-6c-0.7,0-1.3,0.1-1.9,0.3v0l-27.9,9.3v-29.1L507.8,269.3z M366.8,114.7h109.4v11.9H372.6
		h-16.5H254c4-3.5,8.4-6.3,13.2-8.3c5.7-2.4,11.9-3.6,18.3-3.6H366.8z M31.1,367.3H15.6V242.8h15.6V367.3z M70,211.6h7.8v15.6H15.6
		v-93.4c0-8.6,7-15.6,15.6-15.6h214.3c-11.9,10.9-19.4,26.6-19.4,44v23.8h11.9v9.9H70c-4.3,0-7.8,3.5-7.8,7.8
		C62.2,208.2,65.7,211.6,70,211.6z M105.8,336.1c-6.9,0-12.4-7-12.4-15.6V211.6h144.5v31.1H132.3c-4.3,0-7.8,3.5-7.8,7.8
		c0,4.3,3.5,7.8,7.8,7.8h105.6v31.1H132.3c-4.3,0-7.8,3.5-7.8,7.8c0,4.3,3.5,7.8,7.8,7.8h105.6v31.1H105.8z M464.3,364.9h-90.9
		h-15.6h-15.6h-15.6h-77v-13.2v-15.6v-54.6h30.3h15.6h31.1h6.5c0,3.3,2.7,6,6,6h3.1h15.6h15.6h1.5c3.3,0,6-2.7,6-6h83.4V364.9z
		 M464.3,269.6h-90.9h-15.6h-15.6h-15.6h-31.1h-15.6h-30.3v-57.9v-15.6v-9.9h83c0,3.3,2.7,6,6,6h19.1h15.6h1.1c3.3,0,6-2.7,6-6h83.8
		V269.6z M373.4,174.2h-15.6h-120v-11.9c0-8.5,2.2-16.7,6.4-23.8h113.6h15.6h102.8v35.8H373.4z"/>
	<linearGradient id="SVGID_4_" gradientUnits="userSpaceOnUse" x1="458.3712" y1="113.5976" x2="458.3712" y2="382.2349">
		<stop  offset="0" style="stop-color:#FDB620"/>
		<stop  offset="1" style="stop-color:#F8931F"/>
	</linearGradient>
	<path class="st3" d="M458.4,150.4c-3.3,0-6,2.7-6,6c0,3.3,2.7,6,6,6c3.3,0,6-2.7,6-6C464.3,153.1,461.7,150.4,458.4,150.4z"/>
	<linearGradient id="SVGID_5_" gradientUnits="userSpaceOnUse" x1="434.5318" y1="113.5976" x2="434.5318" y2="382.2349">
		<stop  offset="0" style="stop-color:#FDB620"/>
		<stop  offset="1" style="stop-color:#F8931F"/>
	</linearGradient>
	<path class="st4" d="M434.5,150.4c-3.3,0-6,2.7-6,6c0,3.3,2.7,6,6,6c3.3,0,6-2.7,6-6C440.5,153.1,437.8,150.4,434.5,150.4z"/>
	<linearGradient id="SVGID_6_" gradientUnits="userSpaceOnUse" x1="410.7013" y1="113.5976" x2="410.7013" y2="382.2349">
		<stop  offset="0" style="stop-color:#FDB620"/>
		<stop  offset="1" style="stop-color:#F8931F"/>
	</linearGradient>
	<path class="st5" d="M410.7,150.4c-3.3,0-6,2.7-6,6c0,3.3,2.7,6,6,6c3.3,0,6-2.7,6-6C416.7,153.1,414,150.4,410.7,150.4z"/>
</g>
</svg>
