<?xml version="1.0" encoding="utf-8"?>
<!-- Generator: Adobe Illustrator 22.0.1, SVG Export Plug-In . SVG Version: 6.00 Build 0)  -->
<svg version="1.1" id="Layer_1" xmlns="http://www.w3.org/2000/svg" xmlns:xlink="http://www.w3.org/1999/xlink" x="0px" y="0px"
	 viewBox="0 0 512 512" style="enable-background:new 0 0 512 512;" xml:space="preserve">
<style type="text/css">
	.st0{fill:url(#SVGID_1_);}
	.st1{fill:url(#SVGID_2_);}
	.st2{fill:url(#SVGID_3_);}
	.st3{fill:url(#SVGID_4_);}
	.st4{fill:url(#SVGID_5_);}
	.st5{fill:url(#SVGID_6_);}
	.st6{fill:url(#SVGID_7_);}
</style>
<g>
	<linearGradient id="SVGID_1_" gradientUnits="userSpaceOnUse" x1="42.221" y1="102" x2="42.221" y2="417.0016">
		<stop  offset="0" style="stop-color:#FDB620"/>
		<stop  offset="1" style="stop-color:#F8931F"/>
	</linearGradient>
	<path class="st0" d="M50.2,256v-58c0-4.4-3.6-8-8-8h0c-4.4,0-8,3.6-8,8v57.7c0,4.3,3.2,8,7.5,8.3C46.4,264.3,50.2,260.6,50.2,256z"
		/>
	<linearGradient id="SVGID_2_" gradientUnits="userSpaceOnUse" x1="255.9995" y1="102" x2="255.9995" y2="417.0016">
		<stop  offset="0" style="stop-color:#FDB620"/>
		<stop  offset="1" style="stop-color:#F8931F"/>
	</linearGradient>
	<path class="st1" d="M476.2,231.4l-13.3-53c3.6-0.8,6.3-4,6.3-7.8v-8.6c0-18.6-15.1-33.7-33.7-33.7h-60.4v-17.6
		c0-9.2-7.4-16.6-16.6-16.6H50.8c-9.2,0-16.6,7.4-16.6,16.6v6.4c0,4.4,3.6,8,8,8h0c4.4,0,8-3.6,8-8v-6.4c0-0.3,0.2-0.5,0.5-0.5
		h307.8c0.3,0,0.5,0.2,0.5,0.5v145.1c0,4.3,3.2,8,7.5,8.3c4.7,0.3,8.6-3.4,8.6-8v-9.1h94.6c0,0,0,0,0,0c0,0,0,0,0,0
		c11.6,0,21.5,7.6,24.9,18.2h-24.9c-4.4,0-8,3.6-8,8v17.1c0,13.9,11.2,25.1,25.1,25.1h9.1v35.3h-21c-6.9-19.9-25.8-34.2-48-34.2
		s-41.1,14.3-48,34.2h-3.9v-60.1c0-4.3-3.2-8-7.5-8.3c-4.7-0.3-8.6,3.4-8.6,8v60.4H192.8c-6.9-19.9-25.8-34.2-48-34.2
		s-41.1,14.3-48,34.2H50.8c-0.3,0-0.5-0.2-0.5-0.5v-17.6h34.5c4.3,0,8-3.2,8.3-7.5c0.3-4.7-3.4-8.5-8-8.5H8.3c-4.3,0-8,3.2-8.3,7.5
		c-0.3,4.7,3.4,8.5,8,8.5h26.2v17.6c0,9.2,7.4,16.6,16.6,16.6h43.3c0,0.2,0,0.4,0,0.5c0,28,22.8,50.8,50.8,50.8s50.8-22.8,50.8-50.8
		c0-0.2,0-0.4,0-0.5h180.7c0,0.2,0,0.4,0,0.5c0,28,22.8,50.8,50.8,50.8s50.8-22.8,50.8-50.8c0-0.2,0-0.4,0-0.5H504c4.4,0,8-3.6,8-8
		v-85.5C512,252,496.4,234.4,476.2,231.4z M453.2,162.5h-78v-18.2h60.4c9.7,0,17.6,7.9,17.6,17.6V162.5z M144.8,401.9
		c-19.2,0-34.7-15.6-34.7-34.7s15.6-34.7,34.7-34.7c19.2,0,34.7,15.6,34.7,34.7S164,401.9,144.8,401.9z M427,401.9
		c-19.2,0-34.7-15.6-34.7-34.7s15.6-34.7,34.7-34.7s34.7,15.6,34.7,34.7S446.2,401.9,427,401.9z M486.9,299.3c-5,0-9.1-4.1-9.1-9.1
		v-9.1H496v18.2H486.9z"/>
	<linearGradient id="SVGID_3_" gradientUnits="userSpaceOnUse" x1="144.835" y1="102" x2="144.835" y2="417.0016">
		<stop  offset="0" style="stop-color:#FDB620"/>
		<stop  offset="1" style="stop-color:#F8931F"/>
	</linearGradient>
	<circle class="st2" cx="144.8" cy="367.2" r="16.6"/>
	<linearGradient id="SVGID_4_" gradientUnits="userSpaceOnUse" x1="427.023" y1="102" x2="427.023" y2="417.0016">
		<stop  offset="0" style="stop-color:#FDB620"/>
		<stop  offset="1" style="stop-color:#F8931F"/>
	</linearGradient>
	<circle class="st3" cx="427" cy="367.2" r="16.6"/>
	<linearGradient id="SVGID_5_" gradientUnits="userSpaceOnUse" x1="273.102" y1="102" x2="273.102" y2="417.0016">
		<stop  offset="0" style="stop-color:#FDB620"/>
		<stop  offset="1" style="stop-color:#F8931F"/>
	</linearGradient>
	<path class="st4" d="M205.2,324.4c0,4.4,3.6,8,8,8H333c4.4,0,8-3.6,8-8c0-4.4-3.6-8-8-8H213.2C208.8,316.4,205.2,320,205.2,324.4z"
		/>
	<linearGradient id="SVGID_6_" gradientUnits="userSpaceOnUse" x1="76.426" y1="102" x2="76.426" y2="417.0016">
		<stop  offset="0" style="stop-color:#FDB620"/>
		<stop  offset="1" style="stop-color:#F8931F"/>
	</linearGradient>
	<path class="st5" d="M17.1,290.2c0,4.4,3.6,8,8,8h102.6c4.4,0,8-3.6,8-8c0-4.4-3.6-8-8-8H25.1C20.7,282.2,17.1,285.8,17.1,290.2z"
		/>
	<linearGradient id="SVGID_7_" gradientUnits="userSpaceOnUse" x1="124.9544" y1="102" x2="124.9544" y2="417.0016">
		<stop  offset="0" style="stop-color:#FDB620"/>
		<stop  offset="1" style="stop-color:#F8931F"/>
	</linearGradient>
	<path class="st6" d="M6.1,156.1c10.9,17.7,29.7,28.4,50.5,28.7l4.9,10.5c8.5,18.2,24.2,29.4,40.9,29.4h12l2.9,9.2
		c6,19,17.3,30.4,30.3,30.4h89.6c7,0,12.7-5.7,12.7-12.7V191c0-10.3-2.6-20.5-7.5-29.6c-10.6-19.4-30.9-31.4-53-31.4H12.7
		c-4.6,0-8.8,2.5-11.1,6.5c-2.2,4-2.1,8.9,0.3,12.9L6.1,156.1z M189.4,145.2c16.5,0,31.7,9,39.6,23.5c3.7,6.8,5.7,14.5,5.7,22.2
		v58.2h-87.1c-5.7,0-12-7.9-15.7-19.7l-1.5-4.6h70.4c4.2,0,7.6-3.4,7.6-7.6s-3.4-7.6-7.6-7.6H120c-0.1,0-0.2,0-0.2,0h-17.4
		c-10.9,0-21-7.7-27.1-20.7l-1.7-3.7h103.8c4.2,0,7.6-3.4,7.6-7.6s-3.4-7.6-7.6-7.6H62l-3.8-0.4c-0.2,0-0.5,0-0.7,0
		c-15.8,0-30.1-8-38.4-21.4l-1.8-2.9H189.4z"/>
</g>
</svg>
