<?xml version="1.0" encoding="utf-8"?>
<!-- Generator: Adobe Illustrator 22.0.1, SVG Export Plug-In . SVG Version: 6.00 Build 0)  -->
<svg version="1.1" id="_x31_" xmlns="http://www.w3.org/2000/svg" xmlns:xlink="http://www.w3.org/1999/xlink" x="0px" y="0px"
	 viewBox="0 0 512 512" style="enable-background:new 0 0 512 512;" xml:space="preserve">
<style type="text/css">
	.st0{fill:#005E98;}
</style>
<path class="st0" d="M494.9,238.9c-6.3,0-11.7,3.5-14.7,8.5h-24.5l17.7-17.7c1.4,0.4,2.8,0.6,4.4,0.6c9.4,0,17.1-7.6,17.1-17.1
	c0-9.4-7.6-17.1-17.1-17.1c-9.4,0-17.1,7.6-17.1,17.1c0,1.5,0.3,3,0.6,4.4l-29.8,29.8h-22.1v-5l14.6-14.6c3.3-3.3,3.3-8.7,0-12.1
	c-3.3-3.3-8.7-3.3-12.1,0L395,232.9c-0.8,0.8-1.4,1.7-1.9,2.8c-0.4,1-0.7,2.1-0.7,3.3v8.5h-39.1l9.2-9.2c1.4,0.4,2.8,0.6,4.4,0.6
	c9.4,0,17.1-7.6,17.1-17.1s-7.6-17.1-17.1-17.1c-9.4,0-17.1,7.6-17.1,17.1c0,1.5,0.3,3,0.6,4.4l-21.2,21.2h-22.8
	c-1.3-7.8-4.4-14.9-8.7-21.1l13-13h30.6c4.7,0,8.5-3.8,8.5-8.5s-3.8-8.5-8.5-8.5h-13.5l26.3-26.3l6.8,6.8c0.8,0.8,1.7,1.4,2.8,1.9
	c1,0.4,2.1,0.7,3.3,0.7h17.1c4.7,0,8.5-3.8,8.5-8.5s-3.8-8.5-8.5-8.5h-13.5l-4.3-4.3l12.8-12.8H421c0.7,1.3,1.6,2.5,2.6,3.5
	c6.7,6.7,17.5,6.7,24.1,0c6.7-6.7,6.7-17.5,0-24.1c-6.7-6.7-17.5-6.7-24.1,0c-1.1,1.1-1.9,2.3-2.6,3.5h-25l26.2-26.2
	c5.7,1.5,12,0.1,16.4-4.4c6.7-6.7,6.7-17.5,0-24.1c-6.7-6.7-17.5-6.7-24.1,0c-4.5,4.5-5.9,10.7-4.4,16.4L383.9,116V91.3
	c1.5-0.8,2.9-1.7,4.1-3c6.7-6.7,6.7-17.5,0-24.1c-6.7-6.7-17.5-6.7-24.1,0c-6.7,6.7-6.7,17.5,0,24.1c0.9,0.9,1.9,1.7,2.9,2.3v42.4
	l-12.8,12.8l-4.3-4.3v-13.5c0-4.7-3.8-8.5-8.5-8.5c-4.7,0-8.5,3.8-8.5,8.5v17.1c0,1.1,0.2,2.2,0.7,3.3c0.4,1,1.1,2,1.9,2.8l6.8,6.8
	l-26.3,26.3v-13.5c0-4.7-3.8-8.5-8.5-8.5c-4.7,0-8.5,3.8-8.5,8.5v30.6l-13,13c-6.2-4.4-13.3-7.4-21.1-8.7v-22.7l21.2-21.2
	c1.4,0.4,2.8,0.6,4.4,0.6c9.4,0,17.1-7.6,17.1-17.1c0-9.4-7.6-17.1-17.1-17.1c-9.4,0-17.1,7.6-17.1,17.1c0,1.5,0.3,3,0.6,4.4
	l-9.2,9.2V111h8.5c1.1,0,2.2-0.2,3.3-0.7c1-0.4,2-1.1,2.8-1.9l17.1-17.1c3.3-3.3,3.3-8.7,0-12.1c-3.3-3.3-8.7-3.3-12.1,0l-14.6,14.6
	h-5V80.4l29.8-29.8c1.4,0.4,2.8,0.6,4.4,0.6c9.4,0,17.1-7.6,17.1-17.1s-7.6-17.1-17.1-17.1c-9.4,0-17.1,7.6-17.1,17.1
	c0,1.5,0.3,3,0.6,4.4l-17.7,17.7V31.7c5.1-3,8.5-8.4,8.5-14.7C273.1,7.6,265.4,0,256,0c-9.4,0-17.1,7.6-17.1,17.1
	c0,6.3,3.5,11.7,8.5,14.7v24.5l-17.7-17.7c0.4-1.4,0.6-2.8,0.6-4.4c0-9.4-7.6-17.1-17.1-17.1c-9.4,0-17.1,7.6-17.1,17.1
	s7.6,17.1,17.1,17.1c1.5,0,3-0.3,4.4-0.6l29.8,29.8v13.5h-5l-14.6-14.6c-3.3-3.3-8.7-3.3-12.1,0c-3.3,3.3-3.3,8.7,0,12.1l17.1,17.1
	c0.8,0.8,1.7,1.4,2.8,1.9c1,0.4,2.1,0.7,3.3,0.7h8.5v47.8l-9.2-9.2c0.4-1.4,0.6-2.8,0.6-4.4c0-9.4-7.6-17.1-17.1-17.1
	c-9.4,0-17.1,7.6-17.1,17.1c0,9.4,7.6,17.1,17.1,17.1c1.5,0,3-0.3,4.4-0.6l21.2,21.2v22.7c-7.8,1.3-14.9,4.4-21.1,8.7l-13-13v-30.6
	c0-4.7-3.8-8.5-8.5-8.5c-4.7,0-8.5,3.8-8.5,8.5v13.5L170,157.9l6.8-6.8c0.8-0.8,1.4-1.7,1.9-2.8c0.4-1,0.7-2.1,0.7-3.3v-17.1
	c0-4.7-3.8-8.5-8.5-8.5c-4.7,0-8.5,3.8-8.5,8.5v13.5l-4.3,4.3l-12.8-12.8V91.6c5.1-3,8.5-8.4,8.5-14.7c0-9.4-7.6-17.1-17.1-17.1
	c-9.4,0-17.1,7.6-17.1,17.1c0,6.3,3.5,11.7,8.5,14.7V116l-26.2-26.2c1.5-5.7,0.1-12-4.4-16.4c-6.7-6.7-17.5-6.7-24.1,0
	c-6.7,6.7-6.7,17.5,0,24.1c4.5,4.5,10.7,5.9,16.4,4.4l26.2,26.2H91.6c-0.7-1.3-1.6-2.5-2.6-3.5c-6.7-6.7-17.5-6.7-24.1,0
	c-6.7,6.7-6.7,17.5,0,24.1c6.7,6.7,17.5,6.7,24.1,0c1.1-1.1,1.9-2.3,2.6-3.5h41.5l12.8,12.8l-4.3,4.3h-13.5c-4.7,0-8.5,3.8-8.5,8.5
	c0,4.7,3.8,8.5,8.5,8.5h17.1c1.1,0,2.2-0.2,3.3-0.7c1-0.4,2-1.1,2.8-1.9l6.8-6.8l26.3,26.3h-13.5c-4.7,0-8.5,3.8-8.5,8.5
	s3.8,8.5,8.5,8.5h30.6l13.1,13c-4.4,6.2-7.4,13.3-8.7,21.1h-22.8l-21.2-21.2c0.4-1.4,0.6-2.8,0.6-4.4c0-9.4-7.6-17.1-17.1-17.1
	c-9.4,0-17.1,7.6-17.1,17.1s7.6,17.1,17.1,17.1c1.5,0,3-0.3,4.4-0.6l9.2,9.2h-39.1v-8.5c0-1.1-0.2-2.2-0.7-3.3c-0.4-1-1.1-2-1.9-2.8
	L100,215.9c-3.3-3.3-8.7-3.3-12.1,0c-3.3,3.3-3.3,8.7,0,12.1l14.6,14.6v5H80.4l-29.8-29.8c0.4-1.4,0.6-2.8,0.6-4.4
	c0-9.4-7.6-17.1-17.1-17.1c-9.4,0-17.1,7.6-17.1,17.1s7.6,17.1,17.1,17.1c1.5,0,3-0.3,4.4-0.6l17.7,17.7H31.7
	c-3-5.1-8.4-8.5-14.7-8.5C7.6,238.9,0,246.6,0,256c0,9.4,7.6,17.1,17.1,17.1c6.3,0,11.7-3.5,14.7-8.5h24.5l-17.7,17.7
	c-1.4-0.4-2.8-0.6-4.4-0.6c-9.4,0-17.1,7.6-17.1,17.1c0,9.4,7.6,17.1,17.1,17.1c9.4,0,17.1-7.6,17.1-17.1c0-1.5-0.3-3-0.6-4.4
	l29.8-29.8h22.1v5l-14.6,14.6c-3.3,3.3-3.3,8.7,0,12.1c1.7,1.7,3.8,2.5,6,2.5c2.2,0,4.4-0.8,6-2.5l17.1-17.1
	c0.8-0.8,1.4-1.7,1.9-2.8c0.4-1,0.7-2.1,0.7-3.3v-8.5h39.1l-9.2,9.2c-1.4-0.4-2.8-0.6-4.4-0.6c-9.4,0-17.1,7.6-17.1,17.1
	s7.6,17.1,17.1,17.1c9.4,0,17.1-7.6,17.1-17.1c0-1.5-0.3-3-0.6-4.4l21.2-21.2h22.8c1.3,7.8,4.4,14.9,8.7,21.1l-13.1,13h-30.6
	c-4.7,0-8.5,3.8-8.5,8.5s3.8,8.5,8.5,8.5h13.5L157.9,342l-6.8-6.8c-0.8-0.8-1.7-1.4-2.8-1.9c-1-0.4-2.1-0.7-3.3-0.7h-17.1
	c-4.7,0-8.5,3.8-8.5,8.5s3.8,8.5,8.5,8.5h13.5l4.3,4.3l-12.8,12.8H91c-0.7-1.3-1.6-2.5-2.6-3.5c-6.7-6.7-17.5-6.7-24.1,0
	c-6.7,6.7-6.7,17.5,0,24.1c6.7,6.7,17.5,6.7,24.1,0c1.1-1.1,1.9-2.3,2.6-3.5h25l-26.2,26.2c-5.7-1.5-12-0.1-16.4,4.4
	c-6.7,6.7-6.7,17.5,0,24.1c6.7,6.7,17.5,6.7,24.1,0c4.5-4.5,5.9-10.7,4.4-16.4l26.2-26.2v24.7c-1.5,0.8-2.9,1.7-4.1,3
	c-6.7,6.7-6.7,17.5,0,24.1c6.7,6.7,17.5,6.7,24.1,0c6.7-6.7,6.7-17.5,0-24.1c-0.9-0.9-1.9-1.7-2.9-2.3v-42.4l12.8-12.8l4.3,4.3v13.5
	c0,4.7,3.8,8.5,8.5,8.5c4.7,0,8.5-3.8,8.5-8.5v-17.1c0-1.1-0.2-2.2-0.7-3.3c-0.4-1-1.1-2-1.9-2.8l-6.8-6.8l26.3-26.3v13.5
	c0,4.7,3.8,8.5,8.5,8.5c4.7,0,8.5-3.8,8.5-8.5v-30.6l13-13c6.2,4.4,13.3,7.4,21.1,8.7v22.8l-21.2,21.2c-1.4-0.4-2.8-0.6-4.4-0.6
	c-9.4,0-17.1,7.6-17.1,17.1c0,9.4,7.6,17.1,17.1,17.1c9.4,0,17.1-7.6,17.1-17.1c0-1.5-0.3-3-0.6-4.4l9.2-9.2V401h-8.5
	c-1.1,0-2.2,0.2-3.3,0.7c-1,0.4-2,1.1-2.8,1.9l-17.1,17.1c-3.3,3.3-3.3,8.7,0,12.1c1.7,1.7,3.8,2.5,6,2.5c2.2,0,4.4-0.8,6-2.5
	l14.6-14.6h5v13.5l-29.8,29.8c-1.4-0.4-2.8-0.6-4.4-0.6c-9.4,0-17.1,7.6-17.1,17.1c0,9.4,7.6,17.1,17.1,17.1
	c9.4,0,17.1-7.6,17.1-17.1c0-1.5-0.3-3-0.6-4.4l17.7-17.7v24.5c-5.1,3-8.5,8.4-8.5,14.7c0,9.4,7.6,17.1,17.1,17.1
	c9.4,0,17.1-7.6,17.1-17.1c0-6.3-3.5-11.7-8.5-14.7v-24.5l17.7,17.7c-0.4,1.4-0.6,2.8-0.6,4.4c0,9.4,7.6,17.1,17.1,17.1
	c9.4,0,17.1-7.6,17.1-17.1c0-9.4-7.6-17.1-17.1-17.1c-1.5,0-3,0.3-4.4,0.6l-29.8-29.8v-13.5h5l14.6,14.6c1.7,1.7,3.8,2.5,6,2.5
	c2.2,0,4.4-0.8,6-2.5c3.3-3.3,3.3-8.7,0-12.1l-17.1-17.1c-0.8-0.8-1.7-1.4-2.8-1.9c-1-0.4-2.1-0.7-3.3-0.7h-8.5v-47.6l9.2,9.2
	c-0.4,1.4-0.6,2.8-0.6,4.4c0,9.4,7.6,17.1,17.1,17.1c9.4,0,17.1-7.6,17.1-17.1c0-9.4-7.6-17.1-17.1-17.1c-1.5,0-3,0.3-4.4,0.6
	l-21.2-21.2v-22.8c7.8-1.3,14.9-4.4,21.1-8.7l13,13v30.6c0,4.7,3.8,8.5,8.5,8.5c4.7,0,8.5-3.8,8.5-8.5v-13.5l26.3,26.3l-6.8,6.8
	c-0.8,0.8-1.4,1.7-1.9,2.8c-0.4,1-0.7,2.1-0.7,3.3v17.1c0,4.7,3.8,8.5,8.5,8.5c4.7,0,8.5-3.8,8.5-8.5v-13.5l4.3-4.3l12.8,12.8v41.5
	c-5.1,3-8.5,8.4-8.5,14.7c0,9.4,7.6,17.1,17.1,17.1c9.4,0,17.1-7.6,17.1-17.1c0-6.3-3.5-11.7-8.5-14.7V396l26.2,26.2
	c-1.5,5.7-0.1,12,4.4,16.4c6.7,6.7,17.5,6.7,24.1,0c6.7-6.7,6.7-17.5,0-24.1c-4.5-4.5-10.7-5.9-16.4-4.4L396,383.9h24.4
	c0.7,1.3,1.6,2.5,2.6,3.5c6.7,6.7,17.5,6.7,24.1,0c6.7-6.7,6.7-17.5,0-24.1c-6.7-6.7-17.5-6.7-24.1,0c-1.1,1.1-1.9,2.3-2.6,3.5
	h-41.5l-12.8-12.8l4.3-4.3h13.5c4.7,0,8.5-3.8,8.5-8.5s-3.8-8.5-8.5-8.5h-17.1c-1.1,0-2.2,0.2-3.3,0.7c-1,0.4-2,1.1-2.8,1.9
	l-6.8,6.8l-26.3-26.3h13.5c4.7,0,8.5-3.8,8.5-8.5s-3.8-8.5-8.5-8.5h-30.6l-13-13c4.4-6.2,7.4-13.3,8.7-21.1h22.8l21.2,21.2
	c-0.4,1.4-0.6,2.8-0.6,4.4c0,9.4,7.6,17.1,17.1,17.1c9.4,0,17.1-7.6,17.1-17.1c0-9.4-7.6-17.1-17.1-17.1c-1.5,0-3,0.3-4.4,0.6
	l-9.2-9.2h39.1v8.5c0,1.1,0.2,2.2,0.7,3.3c0.4,1,1.1,2,1.9,2.8l17.1,17.1c1.7,1.7,3.8,2.5,6,2.5c2.2,0,4.4-0.8,6-2.5
	c3.3-3.3,3.3-8.7,0-12.1l-14.6-14.6v-5h22.1l29.8,29.8c-0.4,1.4-0.6,2.8-0.6,4.4c0,9.4,7.6,17.1,17.1,17.1c9.4,0,17.1-7.6,17.1-17.1
	c0-9.4-7.6-17.1-17.1-17.1c-1.5,0-3,0.3-4.4,0.6l-17.7-17.7h24.5c3,5.1,8.4,8.5,14.7,8.5c9.4,0,17.1-7.6,17.1-17.1
	C512,246.6,504.4,238.9,494.9,238.9z M256,287.4c-17.3,0-31.4-14.1-31.4-31.4c0-17.3,14.1-31.4,31.4-31.4
	c17.3,0,31.4,14.1,31.4,31.4C287.4,273.3,273.3,287.4,256,287.4z"/>
</svg>
