<?xml version="1.0" encoding="utf-8"?>
<!-- Generator: Adobe Illustrator 22.0.1, SVG Export Plug-In . SVG Version: 6.00 Build 0)  -->
<svg version="1.1" id="_x31_" xmlns="http://www.w3.org/2000/svg" xmlns:xlink="http://www.w3.org/1999/xlink" x="0px" y="0px"
	 viewBox="0 0 512 512" style="enable-background:new 0 0 512 512;" xml:space="preserve">
<style type="text/css">
	.st0{fill:#005E98;}
</style>
<g>
	<g>
		<path class="st0" d="M363.1,157c0-45.5-37-82.5-82.5-82.5c-16.4,0-31.8,4.9-45,13.5c2.4-6.9,3.7-14.2,3.7-21.7
			c0-36.4-29.6-66-66-66c-36.4,0-66,29.6-66,66c0,16.2,5.9,31.5,16.5,43.5v40.9c0,3.6-2.4,6.8-5.9,7.9C73.8,172.5,0,213.5,0,330.3
			c0,126.7,74.8,178,77.9,180.1l2.1,1.4h186.5l2.1-1.4c3.2-2.1,77.9-53.4,77.9-180.1c0-43.6-10.3-76.6-25.5-101.6
			C346.8,214.2,363.1,187,363.1,157z M280.5,91c36.4,0,66,29.6,66,66c0,24.5-13.6,46.6-34.9,58c-3.6-4.7-7.4-9-11.3-13
			c17.6-7.6,29.7-24.9,29.7-45c0-27.3-22.2-49.5-49.5-49.5c-27.3,0-49.5,22.2-49.5,49.5c0,0.8,0.2,1.6,0.2,2.4
			c-0.8-0.3-1.7-0.6-2.6-0.9c-3.5-1.1-5.9-4.3-5.9-7.9v-25.3C234.4,104.1,256.3,91,280.5,91z M286.4,189.1
			c-12.4-10-25.2-17.3-37.3-22.7c-0.9-3.1-1.6-6.2-1.6-9.4c0-18.2,14.8-33,33-33c18.2,0,33,14.8,33,33
			C313.5,173.1,302,186.3,286.4,189.1z M330,330.3c0,106.6-57.5,156.4-68.7,165H85.2c-11.2-8.6-68.7-58-68.7-165
			c0-100.9,57.8-140.6,106.4-156c10.4-3.3,17.4-12.8,17.4-23.6v-34.9h49.5h7h9.5v34.9c0,10.8,7,20.3,17.4,23.6
			C272.2,189.7,330,229.3,330,330.3z"/>
		<path class="st0" d="M173.3,190c-63.5,0-132,53.6-132,140.3c0,26.5,5,52.5,14.8,77.3l2.1,5.2h230.3l2.1-5.2
			c9.8-24.8,14.8-50.8,14.8-77.3C305.3,243.6,236.8,190,173.3,190z M206.3,330.3h-99v-16.5h99V330.3z M239.3,330.3h-16.5v-16.5h16.5
			V330.3z M239.3,297.3h-132v-16.5h132V297.3z"/>
		<path class="st0" d="M362.6,330.3l7.9,158c0.7,13.2,11.5,23.5,24.7,23.5h84.1c13.2,0,24.1-10.3,24.7-23.5l7.9-158H362.6z
			 M493.4,371.5h-14.8V388h14l-5,99.4c-0.2,4.4-3.8,7.8-8.2,7.8h-84.1c-4.4,0-8-3.4-8.2-7.8l-5-99.4h80v-16.5h-80.9l-1.2-24.8h114.7
			L493.4,371.5z"/>
	</g>
</g>
</svg>
