<?xml version="1.0" encoding="utf-8"?>
<!-- Generator: Adobe Illustrator 22.0.1, SVG Export Plug-In . SVG Version: 6.00 Build 0)  -->
<svg version="1.1" id="_x31_" xmlns="http://www.w3.org/2000/svg" xmlns:xlink="http://www.w3.org/1999/xlink" x="0px" y="0px"
	 viewBox="0 0 512 512" style="enable-background:new 0 0 512 512;" xml:space="preserve">
<style type="text/css">
	.st0{fill:#005E98;}
</style>
<g>
	<path class="st0" d="M371.2,317.1c27.1,0,48.4-29.1,48.4-66.3c0-37.2-21.3-66.3-48.4-66.3c-27.1,0-48.4,29.1-48.4,66.3
		C322.9,288,344.1,317.1,371.2,317.1z"/>
	<path class="st0" d="M161.5,225.5c27.9,0,50.6-31.5,50.6-70.2c0-38.7-22.7-70.2-50.6-70.2s-50.6,31.5-50.6,70.2
		C110.8,194,133.5,225.5,161.5,225.5z"/>
	<path class="st0" d="M282,225.5c27.9,0,50.7-31.5,50.7-70.2c0-38.7-22.7-70.2-50.7-70.2c-27.9,0-50.6,31.5-50.6,70.2
		C231.4,194,254.1,225.5,282,225.5z"/>
	<path class="st0" d="M125.6,250.8c0-37.2-21.2-66.3-48.4-66.3s-48.4,29.1-48.4,66.3c0,37.2,21.2,66.3,48.4,66.3
		C104.4,317.1,125.6,288,125.6,250.8z"/>
	<path class="st0" d="M320.4,430c15.8-9.5,23-28.7,23.7-47.2c0.9-22.7-7.5-44.5-18.7-63.5c-0.4-0.6-0.8-1.3-1.1-1.9
		C313.8,300,301,284,283.9,273.7c-18.1-11-38.9-16.1-59.7-16.5c0,0-2.1,0-2.1,0c-21.1,0-42.3,5-60.7,16.2
		c-7.6,4.6-14.6,10.2-20.8,16.7c-8,8.4-14.4,18.3-20.2,28.5c-5.8,10.1-12,20.3-15.7,31.6c-3.5,10.8-5.4,22.3-4.9,33.8
		c0.8,19.4,8.4,35,21.2,43.7c4.9,3.3,10.1,5,15.6,5c12,0,23.8-7.7,37.5-16.6c14.4-9.4,34-24.5,52.3-21.7
		c15.7,2.4,30.4,13.6,43.1,22.5c12.8,8.9,24.8,17.2,36.7,17.2C311.1,434.1,315.9,432.7,320.4,430z"/>
	<path class="st0" d="M441.7,163.2c-5,0-10,0.6-14.8,1.9c-2.7-0.7-5.4-1.2-8.2-1.5c0-0.1,0-0.1,0-0.2c0.6-4.9,0.9-9.8,0.9-14.8
		c0-51.9-33.3-94.1-74.2-94.1c-5,0-10,0.7-14.8,1.9c-4.8-1.2-9.8-1.9-14.9-1.9c-5,0-10,0.7-14.8,1.9c-4.8-1.2-9.8-1.9-14.9-1.9
		c-11.8,0-23.2,3.6-33.4,10.1c-10.2-6.6-21.6-10.1-33.4-10.1c-5.1,0-10.1,0.7-14.9,1.9c-4.8-1.3-9.8-1.9-14.9-1.9
		c-5.1,0-10.1,0.7-14.9,1.9c0,0,0,0,0,0c-4.8-1.3-9.8-1.9-14.8-1.9c-40.9,0-74.2,42.2-74.2,94.1c0,4.3,0.2,8.6,0.7,12.8
		c0.1,1.2-0.5,2-0.9,2.4c-0.4,0.4-1.2,0.9-2.4,0.7c-4-0.8-8.1-1.3-12.2-1.3c-39.3,0-70.1,38.5-70.1,87.6c0,49.1,30.8,87.6,70.1,87.6
		c2.2,0,4.5-0.1,6.7-0.4c1.4-0.1,2.2,0.6,2.5,1.1c0.4,0.4,0.9,1.4,0.5,2.7c-4.5,14-6.5,28-5.8,41.6c1.3,28.6,13.4,52,34.2,65.7
		c9.6,6.4,20.1,9.6,31.3,9.6c5.3,0,10.3-0.7,15.1-2c4.7,1.3,9.6,2,14.6,2c5.3,0,10.3-0.7,15.1-2c4.7,1.3,9.6,2,14.6,2
		c20.1,0,36.4-10.4,52.2-20.4c0.1-0.1,0.2-0.1,0.3-0.2c0.3,0.2,0.6,0.4,0.9,0.6c14.7,10,31.4,21.3,51.9,21.3c5,0,9.9-0.7,14.7-2
		c4.8,1.3,9.8,2,15,2c5,0,9.9-0.7,14.7-2c4.8,1.3,9.8,2,15,2c10,0,19.5-2.7,28.4-7.9c33.2-19.4,46.4-65.3,32.2-111.6
		c-0.5-1.5,0.3-2.5,0.6-2.9c0.4-0.4,1.2-1.1,2.5-0.8c4.4,1,9,1.6,13.5,1.6c39.3,0,70.1-38.5,70.1-87.6
		C511.8,201.7,481,163.2,441.7,163.2z M356.4,439.9c-2.3,1.4-4.7,2.5-7.2,3.4c-1-0.3-1.9-0.7-2.9-1.1
		c23.4-22.7,31.4-62.1,19.3-101.8c-0.5-1.5,0.3-2.5,0.6-2.9c0.4-0.4,1.2-1.1,2.5-0.8c4.2,1,8.5,1.5,12.9,1.6
		c-0.1,2.1,0.1,4.3,0.7,6.4C394.6,384.7,383.9,423.8,356.4,439.9z M422.1,323.2c18.4-15.6,30.2-42,30.2-72.5
		c0-29.2-10.9-54.6-27.9-70.4c-0.7-0.7-1.5-1.4-2.3-2c1.6,0.4,3.2,0.8,4.8,1.4c24.2,8.3,41.5,36.6,41.5,71.1
		C468.4,287.5,448.8,317.2,422.1,323.2z M406.1,148.6c0,4.4-0.3,8.7-0.8,13c-0.1,0.7-0.1,1.3-0.1,2c-2.7,0.3-5.4,0.8-8,1.5
		c-2.7-0.7-5.4-1.2-8.2-1.5c0-0.1,0-0.1,0-0.2c0.6-4.9,0.9-9.8,0.9-14.8c0-33-13.4-62-33.7-78.8C384.5,76.4,406.1,109.2,406.1,148.6
		z M328.7,71.7c0.7-0.3,1.3-0.5,2-0.7c26.2,8.8,45.6,40.3,45.6,77.6c0,4.4-0.3,8.7-0.8,13c-0.1,0.7-0.1,1.3-0.1,2
		c-4.2,0.5-8.4,1.5-12.4,2.9c-1.3,0.5-2.3-0.1-2.7-0.5c-0.4-0.4-1.2-1.2-1-2.6c0.6-4.9,0.9-9.8,0.9-14.8
		C360.1,116.8,347.7,88.7,328.7,71.7z M265,430.1c-1.5-1-3.1-2.1-4.6-3.1c-0.9-0.6-1.7-1.2-2.6-1.7c-0.9-0.6-1.9-1.3-2.8-1.9
		c-0.9-0.6-1.9-1.2-2.8-1.9c-4.7-3.1-9.5-6-14.5-8.5c-0.5-0.2-0.9-0.5-1.4-0.7l-1-0.5l-1.1-0.1c-1.2-0.2-5.8-0.7-12.8-0.7
		c-4.7,0-7.7,0.2-9.5,0.4l-1,0.1l-1,0.4c-8.5,3.9-16.9,9.2-25,14.3c-4.6,2.9-8.9,5.7-13.3,8.1c-4.5,2.6-9,4.9-13.5,6.6
		c-1,0.4-1.9,0.7-2.9,1c-4.9,1.6-10,2.5-15.4,2.5c-2.9,0-5.7-0.3-8.5-0.9c-5.4-1.1-10.5-3.3-15.4-6.5c-17-11.2-26.9-30.6-28-54.5
		c-0.5-11.9,1.2-24.2,5.2-36.5c0.9-2.7,1-5.5,0.6-8.1c-0.5-2.8-1.6-5.5-3.4-7.8c-3.6-4.5-9-6.8-14.6-6.2c-1.7,0.2-3.4,0.3-5.1,0.3
		c-3.5,0-6.8-0.4-10.1-1.1h0c-26.7-6.1-46.3-35.7-46.3-72.4c0-36.8,19.7-66.4,46.3-72.5h0c3.3-0.7,6.6-1.1,10.1-1.1
		c3.2,0,6.3,0.3,9.4,1c5.1,1.1,10.5-0.4,14.3-4.1c3-2.9,4.9-6.8,5.3-10.9c0.1-1.1,0.1-2.2,0-3.4c-0.4-3.7-0.6-7.5-0.6-11.2
		c0-39.3,21.5-72.1,49.9-78.8c0,0,0,0,0,0c3.5-0.8,7-1.3,10.7-1.3c5,0,10,0.9,14.8,2.5c0.7,0.2,1.3,0.5,2,0.7
		c4.5,1.7,8.8,4.2,12.9,7.2c7.4,5.6,14,13.3,19.2,22.6c1.5,2.7,3.6,4.9,6,6.3c2.4,1.5,5.3,2.3,8.3,2.3c6,0,11.3-3.2,14.3-8.6
		c0.2-0.3,0.4-0.7,0.6-1c2.6-4.5,5.4-8.6,8.6-12.2c2-2.3,4.1-4.4,6.3-6.4c3.7-3.2,7.6-5.9,11.7-8c3.6-1.9,7.3-3.2,11.1-4.2
		c3.5-0.9,7.1-1.3,10.7-1.3c5.2,0,10.2,0.9,15,2.5c0.6,0.2,1.3,0.4,1.9,0.7c4.6,1.8,8.9,4.2,13,7.3c18.3,13.8,30.7,39.8,30.7,69.7
		c0,4.4-0.3,8.7-0.8,13c-0.7,5.8,1.5,11.5,5.9,15.2c4.4,3.7,10.3,4.8,15.7,2.9c4.7-1.6,9.6-2.5,14.6-2.5h0.3
		c5.2,0,10.2,0.9,14.9,2.5c24.2,8.3,41.5,36.6,41.5,71.1c0,41.3-24.8,73.6-56.4,73.6c-3.5,0-7-0.4-10.4-1.2
		c-5.8-1.4-11.6,0.5-15.6,5c-4.1,4.5-5.4,10.7-3.6,16.6c11.3,36.6,3.2,72.6-19.6,90.8c-2,1.6-4.2,3.1-6.4,4.4
		c-2.3,1.4-4.7,2.5-7.2,3.4c-4.7,1.7-9.5,2.6-14.5,2.6c-5.3,0-10.4-1-15.2-2.6C281.1,440.5,273.1,435.5,265,430.1z M386.1,439.9
		c-4.2,2.5-8.6,4.2-13.2,5.2c25.8-22.1,35.1-63.2,22.4-104.6c-0.5-1.5,0.3-2.5,0.6-2.9c0.4-0.4,1.2-1.1,2.5-0.8
		c4.2,1,8.5,1.5,12.9,1.6c-0.1,2.1,0.1,4.3,0.7,6.4C424.3,384.7,413.7,423.8,386.1,439.9z M451.9,323.2c18.4-15.6,30.2-42,30.2-72.5
		c0-30.4-11.8-56.8-30.2-72.4c26.6,6.1,46.3,35.7,46.3,72.4C498.2,287.5,478.5,317.2,451.9,323.2z"/>
</g>
</svg>
