<?xml version="1.0" encoding="utf-8"?>
<!-- Generator: Adobe Illustrator 22.0.1, SVG Export Plug-In . SVG Version: 6.00 Build 0)  -->
<svg version="1.1" id="_x31_" xmlns="http://www.w3.org/2000/svg" xmlns:xlink="http://www.w3.org/1999/xlink" x="0px" y="0px"
	 viewBox="0 0 512 512" style="enable-background:new 0 0 512 512;" xml:space="preserve">
<style type="text/css">
	.st0{fill:#005E98;}
</style>
<g>
	<path class="st0" d="M187.7,234.2c0-11.5-9.4-20.9-20.9-20.9h-4.7v-21.8c0-11.5-9.4-20.9-20.9-20.9H89.1
		c-11.5,0-20.9,9.4-20.9,20.9v21.8h-4.7c-11.5,0-20.9,9.4-20.9,20.9V256H17.1v162.1v51.2v20.1c0,12.5,10.1,22.6,22.6,22.6h151.1
		c12.5,0,22.6-10.1,22.6-22.6v-20.1v-51.2V256h-25.6V234.2z M59.7,234.2c0-2.1,1.7-3.8,3.8-3.8h4.7h93.9h4.7c2.1,0,3.8,1.7,3.8,3.8
		V256H59.7V234.2z M196.3,489.4c0,3-2.5,5.5-5.5,5.5H39.7c-3,0-5.5-2.5-5.5-5.5v-20.1h162.1V489.4z M196.3,273.1v145.1H34.1V273.1
		h8.5h145.1H196.3z"/>
	<path class="st0" d="M115.2,0c-55,0-98.1,41.2-98.1,93.9v44.3c0,8.5,6.9,15.5,15.5,15.5h165.4c8.5,0,15.5-6.9,15.5-15.5V93.9
		C213.3,41.2,170.2,0,115.2,0z M196.3,136.5H34.1V93.9c0-43.1,35.6-76.8,81.1-76.8s81.1,33.7,81.1,76.8V136.5z"/>
	<path class="st0" d="M418.1,324.7L418.1,324.7c0-0.1,0-0.9,0-17.5l0-8.5H247.5l0,8.5c0,14.5-0.1,16.6-0.1,17.2V384v51.2v59.4
		c0,9.6,7.8,17.4,17.4,17.4h136c9.6,0,17.4-7.8,17.4-17.4v-0.1c43.1-4.3,76.8-40.7,76.8-84.9S461.2,329,418.1,324.7z M400.9,435.8
		H264.5v-52.3h136.4L400.9,435.8z M418.1,435.2V384v-7.3c14.7,3.8,25.6,17.1,25.6,32.9s-10.9,29.1-25.6,32.9V435.2z M418.1,477.3
		v-17.2c24.2-4.1,42.7-25.2,42.7-50.5c0-25.3-18.5-46.4-42.7-50.5v-17.2c33.6,4.2,59.7,33,59.7,67.7S451.8,473.1,418.1,477.3z"/>
	<path class="st0" d="M264.8,221.9h136c9.6,0,17.4-7.8,17.4-17.4v-0.1c43.1-4.3,76.8-40.7,76.8-84.9s-33.7-80.6-76.8-84.9v-0.1
		c0-0.1,0-0.8,0-17.4l0-8.5H247.5l0,8.5c0,14.5-0.1,16.6-0.1,17.2v59.6v51.2v59.4C247.5,214.1,255.2,221.9,264.8,221.9z M418.1,93.9
		v-7.3c14.7,3.8,25.6,17.1,25.6,32.9s-10.9,29.1-25.6,32.9v-7.3V93.9z M477.9,119.5c0,34.7-26.1,63.5-59.7,67.7V170
		c24.2-4.1,42.7-25.2,42.7-50.5S442.3,73.1,418.1,69V51.7C451.8,55.9,477.9,84.7,477.9,119.5z M264.5,34.6c0-0.1,0-0.6,0.1-9h136.5
		c0,6.5,0,8,0,8.5l0,0v0.1L401,93.9H264.5V34.6z M400.9,145.1l-0.1,59.7l-136.2-0.3v-59.4H400.9z"/>
</g>
</svg>
