<?xml version="1.0" encoding="utf-8"?>
<!-- Generator: Adobe Illustrator 22.0.1, SVG Export Plug-In . SVG Version: 6.00 Build 0)  -->
<svg version="1.1" id="_1" xmlns="http://www.w3.org/2000/svg" xmlns:xlink="http://www.w3.org/1999/xlink" x="0px" y="0px"
	 viewBox="0 0 512 512" style="enable-background:new 0 0 512 512;" xml:space="preserve">
<style type="text/css">
	.st0{fill:#005E98;}
</style>
<g>
	<g>
		<g>
			<path class="st0" d="M341.3,332.8H170.7c-23.6,0-42.6,19.1-42.7,42.7v59.7c0,23.6,19.1,42.6,42.7,42.7h170.7
				c23.6,0,42.6-19.1,42.7-42.7v-59.7C384,351.9,364.9,332.8,341.3,332.8z M230.4,402.1v21.2c-0.1,0.8-3,3.4-8.5,3.4
				c-5.5,0-8.4-2.6-8.5-3.4v-21.2l8.5-11.9L230.4,402.1z M366.9,435.2c0,14.1-11.5,25.6-25.6,25.6H170.7
				c-14.1,0-25.6-11.5-25.6-25.6V384h60.2l-7.4,10.4c-1,1.4-1.6,3.2-1.6,5v23.9c0,11.5,11.2,20.5,25.6,20.5s25.6-9,25.6-20.5v-23.9
				c0-1.8-0.6-3.5-1.6-5l-7.4-10.4h128.5L366.9,435.2L366.9,435.2z"/>
			<path class="st0" d="M256,93.9c-70.6,0-128,61.3-128,136.5c0,4.7,3.8,8.5,8.5,8.5s8.5-3.8,8.5-8.5c0-65.9,49.8-119.5,110.9-119.5
				s110.9,53.6,110.9,119.5c0,4.7,3.8,8.5,8.5,8.5s8.5-3.8,8.5-8.5C384,155.1,326.6,93.9,256,93.9z"/>
			<path class="st0" d="M324.3,315.7c9.4,0,17.1-7.6,17.1-17.1V196.3c0-18.8-15.3-34.1-34.1-34.1H204.8c-18.8,0-34.1,15.3-34.1,34.1
				v102.4c0,9.4,7.6,17.1,17.1,17.1H324.3z M238.9,240v21.2c-0.1,0.8-3,3.4-8.5,3.4c-5.5,0-8.4-2.6-8.5-3.4V240l8.5-11.9L238.9,240z
				 M187.7,221.9h26.1l-7.4,10.4c-1,1.4-1.6,3.2-1.6,5v23.9c0,11.5,11.2,20.5,25.6,20.5s25.6-9,25.6-20.5v-23.9c0-1.8-0.6-3.5-1.6-5
				l-7.4-10.4h77.3l0,76.8H187.7V221.9z"/>
			<path class="st0" d="M443.7,290.1h-25.6v-68.3c0-52.4-25.5-101.6-68.3-132V42.7c0-23.6-19.1-42.6-42.7-42.7H204.8
				c-23.6,0-42.6,19.1-42.7,42.7v47.2c-42.8,30.3-68.2,79.5-68.3,132v68.3H68.3c-23.6,0-42.6,19.1-42.7,42.7v34.1
				c0,2.3,0.9,4.4,2.5,6c1.6,1.6,3.8,2.5,6,2.5v93.9c0,9.4,7.6,17.1,17.1,17.1h42.7c0,14.1,11.5,25.6,25.6,25.6h273.1
				c14.1,0,25.6-11.5,25.6-25.6h42.7c9.4,0,17.1-7.6,17.1-17.1v-93.9c2.3,0,4.4-0.9,6-2.5c1.6-1.6,2.5-3.8,2.5-6v-34.1
				C486.4,309.2,467.3,290.2,443.7,290.1z M93.9,469.3H51.2v-93.9h42.7C93.9,375.5,93.9,469.3,93.9,469.3z M307.2,68.2
				c-33.2-11.2-69.2-11.2-102.4,0V44.8c0-0.5,0.2-1.1,0.5-1.5c0.1-0.1,0.2-0.1,0.3-0.2c0.2-0.2,0.4-0.4,0.6-0.4h99.5
				c0.2,0,0.4,0.2,0.6,0.4c0.1,0.1,0.2,0.1,0.3,0.2c0.3,0.4,0.5,1,0.5,1.5L307.2,68.2z M401.1,298.7v187.7c0,4.7-3.8,8.5-8.5,8.5
				H119.5c-4.7,0-8.5-3.8-8.5-8.5V221.9c0.1-51.7,27.7-99.5,72.5-125.4c1.3-0.7,2.5-1.6,3.8-2.3c2.3-1.3,4.8-2.3,7.2-3.5
				c2.2-1,4.3-2.1,6.5-3c35.3-14.6,75-14.6,110.3,0c3,1.2,5.9,2.7,8.8,4.1c1.5,0.7,3,1.4,4.4,2.1c2.6,1.4,5.1,3,7.6,4.5
				c42.9,26.3,69.1,73,69.1,123.4L401.1,298.7L401.1,298.7z M460.8,469.3h-42.7v-93.9h42.7V469.3z"/>
		</g>
	</g>
</g>
</svg>
