<?xml version="1.0" encoding="utf-8"?>
<!-- Generator: Adobe Illustrator 22.0.1, SVG Export Plug-In . SVG Version: 6.00 Build 0)  -->
<svg version="1.1" id="_x31_" xmlns="http://www.w3.org/2000/svg" xmlns:xlink="http://www.w3.org/1999/xlink" x="0px" y="0px"
	 viewBox="0 0 512 512" style="enable-background:new 0 0 512 512;" xml:space="preserve">
<style type="text/css">
	.st0{fill:#005E98;}
</style>
<g>
	<path class="st0" d="M81.4,411.1h68.9c9,0,16.6-9.5,16.6-20.9c0-11.3-7.4-20.5-16.6-20.5h-38.3c15.1-12.6,47.8-27.5,53.9-57.6v46.9
		c0,33.8,20,53.2,54.9,53.2c35,0,55.1-19.4,55.1-53.2c0-55.7,0.2-54.6-0.5-60.5c3.4,6.7,10.1,10.9,17.6,9.4v86.3
		c0,22.4,45.2,22.5,45.2,0V271.3c0-14.3-19.9-21-30.4-14.5l-25.5,15.4c-5.6,3.4-8.9,9-9.2,15.7c-6.7-21.3-24.9-33.2-52.3-33.2
		c-31,0-50.3,15.3-54.2,42.5c-2.8-27.6-28.3-42.5-52.3-42.5c-24.8,0-51.2,15.6-51.2,44.7c0,14.7,7.7,23.2,21,23.2
		c15.2,0,23.4-9.5,23.4-18.5c0-4.3,1.2-7,7-7c6,0,7.2,3.4,7.2,6.2c0,18.5-61,37.8-61,72.4v18.8C60.7,405.3,72.7,411.1,81.4,411.1z
		 M211.1,307.9c0-10.9,4.8-11.9,9.7-11.9c6.1,0,9.9,2,9.9,11.9v51.3c0,9.9-3.8,11.9-9.9,11.9c-4.9,0-9.7-0.9-9.7-11.9V307.9z"/>
	<path class="st0" d="M394.4,412.3c34.9,0,54.9-17.3,54.9-47.4c0-15.5-3.5-29.4-16.1-39.1c18.5-17.1,20.9-71.2-38.8-71.2
		c-14.7,0-26.6,3.2-35.2,9.6c-20.1,14.8-19.1,47.2-3.6,61.5c-10.6,8-16.3,20.7-16.3,36.8v2.3C339.3,395,359.3,412.3,394.4,412.3z
		 M394.4,290.2c7.3,0,9.7,1.5,9.7,10.3c0,8.8-2.1,10-9.7,10c-7.7,0-9.7-1.2-9.7-10C384.6,291.7,387.1,290.2,394.4,290.2z
		 M394.4,346.1c10,0,9.7,6,9.7,15.1c0,10.9-5,11.9-9.7,11.9c-6,0-9.9-2-9.9-11.9C384.4,352.1,384.2,346.1,394.4,346.1z"/>
	<path class="st0" d="M474.9,51.5h-60.3V29.8c0-13.6-11.1-24.7-24.7-24.7c-13.6,0-24.7,11.1-24.7,24.7v21.7h-87.4V24.7
		C277.7,11.1,266.6,0,253,0s-24.7,11.1-24.7,24.7v26.8h-87.4V28c0-13.6-11.1-24.7-24.7-24.7c-13.6,0-24.7,11.1-24.7,24.7v23.5H37.1
		c-11.7,0-21.3,9.5-21.3,21.3c0,12.7,0,410.5,0,417.9c0,11.7,9.5,21.3,21.3,21.3h437.7c11.7,0,21.3-9.5,21.3-21.3v-137h0
		c0,0,0-266.7,0-280.9C496.1,61.1,486.6,51.5,474.9,51.5z M380.1,29.8c0-5.4,4.4-9.7,9.7-9.7c5.4,0,9.7,4.4,9.7,9.7
		c0,11.7,0,43.4,0,55.1c0,5.4-4.4,9.7-9.7,9.7c-5.4,0-9.7-4.4-9.7-9.7C380.1,73.2,380.1,41.5,380.1,29.8z M243.3,24.7
		c0-5.4,4.4-9.7,9.7-9.7c5.4,0,9.7,4.4,9.7,9.7c0,5.9,0,48.9,0,55.1c0,5.4-4.4,9.7-9.7,9.7c-5.4,0-9.7-4.4-9.7-9.7
		C243.3,73.7,243.3,30.7,243.3,24.7z M106.4,28c0-5.4,4.4-9.7,9.7-9.7c5.4,0,9.7,4.4,9.7,9.7c0,9.5,0,43.2,0,55.1
		c0,5.4-4.4,9.7-9.7,9.7c-5.4,0-9.7-4.4-9.7-9.7C106.4,72.8,106.4,39.8,106.4,28z M30.9,72.8c0-3.5,2.8-6.3,6.3-6.3h54.3v16.6
		c0,13.6,11.1,24.7,24.7,24.7c13.6,0,24.7-11.1,24.7-24.7V66.5h87.4v13.4c0,13.6,11.1,24.7,24.7,24.7c13.6,0,24.7-11.1,24.7-24.7
		V66.5h87.4v18.4c0,13.6,11.1,24.7,24.7,24.7c13.6,0,24.7-11.1,24.7-24.7V66.5h60.3c3.5,0,6.3,2.8,6.3,6.3v59.6H270.5c0,0,0,0,0,0
		H30.9V72.8z M481.1,344.2v9.5v137c0,3.5-2.8,6.3-6.3,6.3H37.1c-3.5,0-6.3-2.8-6.3-6.3V179.8h450.3V344.2z"/>
</g>
</svg>
