<?xml version="1.0" encoding="utf-8"?>
<!-- Generator: Adobe Illustrator 22.0.1, SVG Export Plug-In . SVG Version: 6.00 Build 0)  -->
<svg version="1.1" id="_x31_" xmlns="http://www.w3.org/2000/svg" xmlns:xlink="http://www.w3.org/1999/xlink" x="0px" y="0px"
	 viewBox="0 0 480 480" style="enable-background:new 0 0 480 480;" xml:space="preserve">
<style type="text/css">
	.st0{fill:#005E98;}
</style>
<g>
	<path class="st0" d="M448,24H80c-17.7,0-32,14.3-32,32v256H8c-4.4,0-8,3.6-8,8c0,17.7,14.3,32,32,32h232v96c0,4.4,3.6,8,8,8
		c2.1,0,4.2-0.8,5.7-2.3l42.3-42.3l42.3,42.3c1.5,1.5,3.5,2.3,5.7,2.3c1.1,0,2.1-0.2,3.1-0.6c3-1.2,4.9-4.2,4.9-7.4v-96h24
		c17.7,0,32-14.3,32-32V64h40c4.4,0,8-3.6,8-8C480,38.3,465.7,24,448,24z M264,336H32c-5.7,0-11-3.1-13.8-8H56h208V336z M271,252.1
		L271,252.1l-8.2-14.7l15.3-7c2.5-1.2,4.3-3.6,4.6-6.3l2-16.7l16.5,3.3c2.7,0.6,5.5-0.4,7.4-2.4l11.4-12.4l11.4,12.4
		c1.9,2.1,4.7,3,7.4,2.4l16.5-3.3l2,16.7c0.3,2.8,2.1,5.2,4.6,6.3l15.3,7l-8.2,14.7c-1.4,2.4-1.4,5.4,0,7.8l8.2,14.7l-15.3,7
		c-2.5,1.2-4.3,3.6-4.6,6.3l-2,16.7l-16.5-3.3c-2.7-0.6-5.5,0.3-7.4,2.4L320,316.2l-11.4-12.4c-1.5-1.6-3.6-2.6-5.9-2.6
		c-0.5,0-1,0.1-1.6,0.2l-16.5,3.3l-2-16.7c-0.3-2.8-2.1-5.2-4.6-6.3l-15.3-7l8.2-14.7C272.4,257.5,272.4,254.5,271,252.1z
		 M325.7,394.3c-3.1-3.1-8.2-3.1-11.3,0L280,428.7V322l19.9-3.9l14.3,15.4c3,3.2,8.1,3.4,11.3,0.4c0.2-0.1,0.3-0.3,0.4-0.4
		l14.3-15.4L360,322v106.7L325.7,394.3z M400,336h-24v-8h37.8C411,332.9,405.7,336,400,336z M416,56v256h-40v-19.2l15.8-7.2
		c4-1.8,5.8-6.6,3.9-10.6c-0.1-0.2-0.2-0.4-0.3-0.6L385.2,256l10.3-18.3c2.2-3.9,0.8-8.7-3-10.9c-0.2-0.1-0.4-0.2-0.6-0.3l-19.1-8.7
		l-2.5-20.9c-0.5-4.4-4.5-7.5-8.9-7c-0.2,0-0.4,0.1-0.6,0.1l-20.6,4.1l-14.3-15.4c-3.2-3.2-8.4-3.3-11.7-0.1c0,0-0.1,0.1-0.1,0.1
		L299.9,194l-20.6-4.1c-4.3-0.9-8.5,2-9.4,6.3c0,0.2-0.1,0.4-0.1,0.6l-2.5,20.9l-19.1,8.8c-4,1.8-5.8,6.6-3.9,10.6
		c0.1,0.2,0.2,0.4,0.3,0.6l10.3,18.3l-10.3,18.3c-2.2,3.8-0.8,8.7,3,10.9c0.2,0.1,0.4,0.2,0.6,0.3l15.8,7.3V312H64V56
		c0-8.8,7.2-16,16-16h340.4C417.6,44.8,416,50.4,416,56z"/>
	<path class="st0" d="M320,296c22.1,0,40-17.9,40-40s-17.9-40-40-40s-40,17.9-40,40C280,278.1,297.9,296,320,296z"/>
	<rect x="176" y="72" class="st0" width="128" height="16"/>
	<rect x="96" y="120" class="st0" width="288" height="16"/>
	<rect x="96" y="152" class="st0" width="288" height="16"/>
	<rect x="104" y="256" class="st0" width="104" height="16"/>
</g>
</svg>
