<?xml version="1.0" encoding="utf-8"?>
<!-- Generator: Adobe Illustrator 22.0.1, SVG Export Plug-In . SVG Version: 6.00 Build 0)  -->
<svg version="1.1" id="_x31_" xmlns="http://www.w3.org/2000/svg" xmlns:xlink="http://www.w3.org/1999/xlink" x="0px" y="0px"
	 viewBox="0 0 512 512" style="enable-background:new 0 0 512 512;" xml:space="preserve">
<style type="text/css">
	.st0{fill:#005E98;}
</style>
<g>
	<path class="st0" d="M209.1,247.5H169l31.3-117.3c1-3.9-0.8-8-4.3-9.8c-3.6-1.8-7.9-0.9-10.5,2.2L65.9,267.6
		c-2.1,2.5-2.5,6.1-1.1,9.1c1.4,3,4.4,4.9,7.7,4.9h40.1L81.4,398.9c-1,3.9,0.8,8,4.3,9.8c1.2,0.6,2.6,0.9,3.9,0.9
		c2.5,0,4.9-1.1,6.6-3.1l119.5-145.1c2.1-2.5,2.5-6.1,1.1-9.1S212.4,247.5,209.1,247.5z"/>
	<path class="st0" d="M490.7,85.3h-17.1V25.6C473.6,11.5,462.1,0,448,0s-25.6,11.5-25.6,25.6v59.7h-34.1V25.6
		c0-14.1-11.5-25.6-25.6-25.6s-25.6,11.5-25.6,25.6v59.7H320c-4.7,0-8.5,3.8-8.5,8.5V128c0,4.7,3.8,8.5,8.5,8.5h8.5v68.3
		c0,18.8,15.3,34.1,34.1,34.1h17.1v8.5c0,11.1,7.1,20.6,17.1,24.1v180.7c0,18.8-15.3,34.1-34.1,34.1c-18.8,0-34.1-15.3-34.1-34.1
		V264.5c0-34.7-26.1-63.5-59.7-67.7v-130c0-18-14.7-32.7-32.7-32.7h-35.6V8.5c0-4.7-3.8-8.5-8.5-8.5H89.6c-4.7,0-8.5,3.8-8.5,8.5
		v25.6H45.5c-18,0-32.7,14.7-32.7,32.7v412.5c0,18,14.7,32.7,32.7,32.7h190.6c18,0,32.7-14.7,32.7-32.7V214.1
		c24.2,4.1,42.7,25.1,42.7,50.5v187.7c0,28.2,23,51.2,51.2,51.2s51.2-23,51.2-51.2V271.6c9.9-3.5,17.1-13,17.1-24.1v-8.5H448
		c18.8,0,34.1-15.3,34.1-34.1v-68.3h8.5c4.7,0,8.5-3.8,8.5-8.5V93.9C499.2,89.2,495.4,85.3,490.7,85.3z M98.1,17.1h85.3v17.1H98.1
		V17.1z M251.7,479.3L251.7,479.3c0,8.6-7,15.6-15.6,15.6H45.5c-8.6,0-15.6-7-15.6-15.6V66.8c0-8.6,7-15.6,15.6-15.6h190.6
		c8.6,0,15.6,7,15.6,15.6V479.3z M465.1,204.8c0,9.4-7.6,17.1-17,17.1h-25.6h-34.1h-25.6c-9.4,0-17.1-7.6-17.1-17.1v-68.3h119.5
		V204.8z M439.5,25.6c0-4.7,3.8-8.5,8.5-8.5c4.7,0,8.5,3.8,8.5,8.5v59.7h-17.1V25.6z M354.1,25.6c0-4.7,3.8-8.5,8.5-8.5
		c4.7,0,8.5,3.8,8.5,8.5v59.7h-17.1V25.6z"/>
</g>
</svg>
