<svg xmlns="http://www.w3.org/2000/svg" viewBox="0 0 512 512"><linearGradient id="a" gradientUnits="userSpaceOnUse" x1="256" y1="17.977" x2="256" y2="502.986"><stop offset="0" stop-color="#fdb620"/><stop offset="1" stop-color="#f8931f"/></linearGradient><path d="M409.6 68.3h-52.8c-3.6-10.2-13.2-17-24-17.1h-17.7C310.9 21.8 285.7 0 256 0s-54.9 21.8-59.1 51.2h-17.7c-10.8 0-20.4 6.9-24 17.1h-52.8c-18.9 0-34.1 15.3-34.1 34.1v375.5c0 18.9 15.3 34.1 34.1 34.1h307.2c18.9 0 34.1-15.3 34.1-34.1V102.4c0-18.8-15.2-34.1-34.1-34.1zM248.1 48c.4-1 1-2 1.8-2.8 3.4-3.2 8.7-3.2 12.1 0 .8.8 1.4 1.8 1.8 2.8.5 1 .7 2.1.7 3.2 0 2.3-.9 4.5-2.5 6.1s-3.8 2.5-6.1 2.5-4.5-.9-6.1-2.5c-1.6-1.6-2.5-3.8-2.5-6.1.2-1.1.4-2.2.8-3.2zm-68.9 88.6h153.6c10.8 0 20.4-6.9 24-17.1h35.7v341.3h-273V119.5h35.7c3.6 10.2 13.2 17 24 17.1zm247.5 341.3c0 9.4-7.6 17.1-17.1 17.1H102.4c-9.4 0-17.1-7.6-17.1-17.1V102.4c0-9.4 7.6-17.1 17.1-17.1h51.2v17.1h-34.1c-9.4 0-17.1 7.6-17.1 17.1v341.3c0 9.4 7.6 17.1 17.1 17.1h273.1c9.4 0 17.1-7.6 17.1-17.1V119.5c0-9.4-7.6-17.1-17.1-17.1h-34.1v-17h51.2c9.4 0 17.1 7.6 17.1 17.1v375.4z" fill="url(#a)"/><linearGradient id="b" gradientUnits="userSpaceOnUse" x1="256" y1="17.977" x2="256" y2="502.986"><stop offset="0" stop-color="#fdb620"/><stop offset="1" stop-color="#f8931f"/></linearGradient><path d="M349.9 392.6H162.1c-4.7 0-8.5 3.8-8.5 8.5s3.8 8.5 8.5 8.5h187.7c4.7 0 8.5-3.8 8.5-8.5.1-4.7-3.7-8.5-8.4-8.5z" fill="url(#b)"/><linearGradient id="c" gradientUnits="userSpaceOnUse" x1="256" y1="17.977" x2="256" y2="502.986"><stop offset="0" stop-color="#fdb620"/><stop offset="1" stop-color="#f8931f"/></linearGradient><path d="M349.9 349.9H162.1c-4.7 0-8.5 3.8-8.5 8.5s3.8 8.5 8.5 8.5h187.7c4.7 0 8.5-3.8 8.5-8.5.1-4.7-3.7-8.5-8.4-8.5z" fill="url(#c)"/><linearGradient id="d" gradientUnits="userSpaceOnUse" x1="256" y1="17.977" x2="256" y2="502.986"><stop offset="0" stop-color="#fdb620"/><stop offset="1" stop-color="#f8931f"/></linearGradient><path d="M349.9 307.2H162.1c-4.7 0-8.5 3.8-8.5 8.5s3.8 8.5 8.5 8.5h187.7c4.7 0 8.5-3.8 8.5-8.5.1-4.7-3.7-8.5-8.4-8.5z" fill="url(#d)"/><linearGradient id="e" gradientUnits="userSpaceOnUse" x1="256" y1="17.977" x2="256" y2="502.986"><stop offset="0" stop-color="#fdb620"/><stop offset="1" stop-color="#f8931f"/></linearGradient><path d="M349.9 264.6H162.1c-4.7 0-8.5 3.8-8.5 8.5s3.8 8.5 8.5 8.5h187.7c4.7 0 8.5-3.8 8.5-8.5.1-4.7-3.7-8.5-8.4-8.5z" fill="url(#e)"/><linearGradient id="f" gradientUnits="userSpaceOnUse" x1="256" y1="17.977" x2="256" y2="502.986"><stop offset="0" stop-color="#fdb620"/><stop offset="1" stop-color="#f8931f"/></linearGradient><path d="M153.6 230.4c0 4.7 3.8 8.5 8.5 8.5h187.7c4.7 0 8.5-3.8 8.5-8.5s-3.8-8.5-8.5-8.5H162.1c-4.7 0-8.5 3.8-8.5 8.5z" fill="url(#f)"/><linearGradient id="g" gradientUnits="userSpaceOnUse" x1="204.8" y1="17.977" x2="204.8" y2="502.986"><stop offset="0" stop-color="#fdb620"/><stop offset="1" stop-color="#f8931f"/></linearGradient><path d="M162.1 196.3h85.3c4.7 0 8.5-3.8 8.5-8.5s-3.8-8.5-8.5-8.5h-85.3c-4.7 0-8.5 3.8-8.5 8.5s3.8 8.5 8.5 8.5z" fill="url(#g)"/></svg>