<svg version="1.1" id="_x31_" xmlns="http://www.w3.org/2000/svg" x="0" y="0" viewBox="0 0 512 512" xml:space="preserve"><style>.st0{fill:#005e98}</style><path class="st0" d="M488 220.5H368v-130c0-13.2-10.8-24-24-24H24c-13.2 0-24 10.8-24 24v164c0 13.2 10.8 24 24 24h120v130c0 13.2 10.8 24 24 24h320c13.2 0 24-10.8 24-24v-164c0-13.2-10.8-24-24-24zm-464 42c-4.4 0-8-3.6-8-8v-164c0-4.4 3.6-8 8-8h320c4.4 0 8 3.6 8 8v164c0 4.4-3.6 8-8 8H24zm472 146c0 4.4-3.6 8-8 8H168c-4.4 0-8-3.6-8-8v-130h184c13.2 0 24-10.8 24-24v-18h120c4.4 0 8 3.6 8 8v164z"/><path class="st0" d="M44.8 210.5h176c4.4 0 8-3.6 8-8s-3.6-8-8-8h-176c-4.4 0-8 3.6-8 8s3.5 8 8 8zm206 0h72.5c4.4 0 8-3.6 8-8s-3.6-8-8-8h-72.5c-4.4 0-8 3.6-8 8s3.5 8 8 8zM359 377.2H228.8c-4.4 0-8 3.6-8 8s3.6 8 8 8H359c4.4 0 8-3.6 8-8s-3.6-8-8-8zm68.3 0H389c-4.4 0-8 3.6-8 8s3.6 8 8 8h38.3c4.4 0 8-3.6 8-8s-3.6-8-8-8zM44.8 116.5h72.5c4.4 0 8-3.6 8-8s-3.6-8-8-8H44.8c-4.4 0-8 3.6-8 8s3.5 8 8 8zm138.5 118c0-4.4-3.6-8-8-8H44.8c-4.4 0-8 3.6-8 8s3.6 8 8 8h130.5c4.4 0 8-3.6 8-8zm140-8h-110c-4.4 0-8 3.6-8 8s3.6 8 8 8h110c4.4 0 8-3.6 8-8s-3.6-8-8-8z"/><circle class="st0" cx="328" cy="326.5" r="36.8"/></svg>