<?xml version="1.0" encoding="utf-8"?>
<!-- Generator: Adobe Illustrator 22.0.1, SVG Export Plug-In . SVG Version: 6.00 Build 0)  -->
<svg version="1.1" id="_x31_" xmlns="http://www.w3.org/2000/svg" xmlns:xlink="http://www.w3.org/1999/xlink" x="0px" y="0px"
	 viewBox="0 0 512.2 512.2" style="enable-background:new 0 0 512.2 512.2;" xml:space="preserve">
<style type="text/css">
	.st0{fill:#005E98;}
</style>
<path class="st0" d="M480.5,358.9l29.9-36.7c1.7-2.6,2.6-6.8,0.9-9.4c-1.7-3.4-4.3-5.1-7.7-5.1h-59.7v-25.6c0-5.1-3.4-8.5-8.5-8.5
	h-55.3c0.3-0.9,0.6-1.9,0.9-2.8c20.9-5,39.4-16.5,52.8-33c6-6.8,11.1-15.4,14.5-23.9l21.7-54.7c0.6-0.9,1-1.9,1.2-3l12.1-30.7
	c0.8-1.1,1.4-2.5,1.6-4l11.8-29.7c1.1-1.3,1.8-3,1.9-4.9l12.8-32.4c0.9-2.6,0.9-5.1-0.9-7.7c-1.7-1.7-4.3-3.4-6.8-3.4h-128
	c-2.6,0-5.1,1.7-6.8,3.4L333,89.8l-71.8-44.9c-3.4-1.7-6.8-1.7-9.4,0l-72.4,45.2l-36-43.5c-1.7-2.6-4.3-3.4-6.8-3.4H8.6
	c-2.6,0-5.1,2.6-6.8,4.3c-1.7,1.7-2.6,5.1-0.9,7.7l13,32.6c0.2,1.2,0.7,2.3,1.3,3.2l12.5,31.3c0.2,0.9,0.5,1.7,1,2.5l12.8,32.1
	c0.2,0.6,0.4,1.1,0.6,1.6l22,55.4c3.4,8.5,8.5,17.1,14.5,24.7c13.4,16.6,32,28.1,53,33.1c0.2,0.6,0.4,1.3,0.6,1.9H76.9
	c-5.1,0-8.5,3.4-8.5,8.5v25.6H8.6c-3.4,0-6,2.6-7.7,4.3c-1.7,3.4-0.9,6.8,0.9,9.4l29.9,37.5L1.8,395.6c-1.7,2.6-2.6,6.8-0.9,9.4
	c1.7,3.4,4.3,5.1,7.7,5.1h93.9c5.1,0,8.5-3.4,8.5-8.5V376h65.8c14.6,23.1,30,44.7,47.7,63.1l25.6,27.3c1.7,1.7,3.4,2.6,6,2.6
	s4.3-0.9,6-2.6l25.6-27.3c17.7-18.5,33.9-39.3,47.9-63.1h65.6v25.6c0,5.1,3.4,8.5,8.5,8.5h93.9c3.4,0,6-1.7,7.7-4.3
	c1.7-3.4,0.9-6.8-0.9-9.4L480.5,358.9z M379.8,60.2h110.9L484,77.3h-40.2c-5.1,0-8.5,3.4-8.5,8.5s3.4,8.5,8.5,8.5h33.4l-6.7,17.1
	h-35.2c-5.1,0-8.5,3.4-8.5,8.5s3.4,8.5,8.5,8.5h28.5l-6.7,17.1h-38.8c-5.1,0-8.5,3.4-8.5,8.5s3.4,8.5,8.5,8.5h32L432.7,207
	c-3.4,6.8-6.8,13.7-11.9,19.6c-8.5,11.1-20.5,19.6-34.1,24.7c5.6-22.8,9.6-45.8,12-68.5c0-0.2,0-0.3,0.1-0.5
	c0.3-2.6,0.5-5.1,0.7-7.7c0.1-0.6,0.1-1.2,0.2-1.8c0.2-2.7,0.4-5.4,0.6-8.1c0.1-0.9,0.1-1.8,0.2-2.6c0.1-1.9,0.2-3.7,0.3-5.6
	c0.1-1.1,0.1-2.2,0.1-3.2c0.1-1.8,0.1-3.6,0.2-5.4c0-0.9,0.1-1.9,0.1-2.8c0.1-2.7,0.1-5.4,0.1-8.1c0-2.6-1.7-5.1-3.4-6.8l-0.1-0.1
	c-0.2-0.3-0.5-0.5-0.8-0.8l-49.5-30.7L379.8,60.2z M92.2,226.6c-5.1-6-9.4-12.8-11.9-19.6l-17.8-44.4h31.5c5.1,0,8.5-3.4,8.5-8.5
	c0-5.1-3.4-8.5-8.5-8.5H55.6l-6.8-17.1h28.1c5.1,0,8.5-3.4,8.5-8.5s-3.4-8.5-8.5-8.5H42l-6.8-17.1h33.2c5.1,0,8.5-3.4,8.5-8.5
	s-3.4-8.5-8.5-8.5H28.3l-6.8-17.1h110.9l32.3,39.1l-49.4,30.9c-2.6,0.9-4.3,4.3-4.3,6.8c0,2.7,0,5.5,0.1,8.2c0,0.9,0,1.9,0.1,2.8
	c0,1.8,0.1,3.6,0.2,5.4c0,1.2,0.1,2.3,0.1,3.5c0.1,1.5,0.2,2.9,0.2,4.4c1.7,29.8,6.4,60.2,14.1,89.8
	C112.4,246,100.7,237.6,92.2,226.6z M131.8,191.8c-0.1-0.7-0.2-1.3-0.2-2c-0.2-1.5-0.4-3.1-0.5-4.6c-0.2-1.5-0.3-3-0.5-4.4
	c-0.1-0.8-0.2-1.7-0.3-2.5c-0.2-1.8-0.3-3.6-0.5-5.3c-0.1-0.8-0.1-1.6-0.2-2.5c-0.1-1.7-0.3-3.3-0.4-4.9c-0.2-2.2-0.3-4.3-0.4-6.5
	c0-0.3,0-0.5,0-0.8c-0.3-5.1-0.5-10.2-0.6-15.2l53.7-34.1c1-0.6,1.8-1.3,2.5-2l71.8-45l73.2,45.9c0.3,0.4,0.7,0.7,1,1.1l53.8,34.1
	c0,7.5-0.3,15.1-0.8,22.8c-0.1,1.4-0.2,2.8-0.3,4.2c-0.1,0.9-0.1,1.9-0.2,2.8c-2,24.2-6.3,49.1-12.3,73.3c-0.2,0.8-0.4,1.6-0.6,2.4
	c-0.1,0.3-0.2,0.6-0.2,0.9c-2.1,8.1-4.4,16.1-6.9,24.1h-18.3c13-38.5,21-78.8,22.6-117.8c0-3.4-1.7-6-4.3-7.7l-101.5-64
	c-3.4-1.7-6.8-1.7-9.4,0l-101.5,64c-2.6,1.7-4.3,4.3-4.3,7.7c2.3,38.1,9.7,79.1,22.6,117.8h-18.3C141.3,246.6,135.3,219,131.8,191.8
	z M274.9,428l-18.8,20.5L237.3,428c-14.5-15.4-28.2-33.3-40.1-52.1h20.3c10.3,14.8,20.7,28.3,32.6,41c1.7,1.7,3.4,2.6,6,2.6
	s4.3-0.9,7.7-2.6l0.9-0.9c11.1-11.9,21.5-25.3,31.8-40.1H315C302.2,395.6,289.4,412.7,274.9,428z M330.3,358.9H181.8h-79.4H85.4
	v-42.7v-25.6h58h36.7H332h36.7h58v25.6v42.7h-17.1H330.3z"/>
</svg>
