<?xml version="1.0" encoding="utf-8"?>
<!-- Generator: Adobe Illustrator 22.0.1, SVG Export Plug-In . SVG Version: 6.00 Build 0)  -->
<svg version="1.1" id="_x31_" xmlns="http://www.w3.org/2000/svg" xmlns:xlink="http://www.w3.org/1999/xlink" x="0px" y="0px"
	 viewBox="0 0 512 512" style="enable-background:new 0 0 512 512;" xml:space="preserve">
<style type="text/css">
	.st0{fill:#005E98;}
</style>
<path class="st0" d="M488.2,345.7L398,214.5l90.2-131.1c1.8-2.6,2-6,0.5-8.8c-1.5-2.8-4.4-4.5-7.5-4.5H226.3v-34
	c0-4.7-3.8-8.5-8.5-8.5H39.3v-17c0-4.7-3.8-8.5-8.5-8.5c-4.7,0-8.5,3.8-8.5,8.5v25.5v246.4v220.9c0,4.7,3.8,8.5,8.5,8.5
	c4.7,0,8.5-3.8,8.5-8.5V291h118.5v25.5c0,23.4,19.1,42.5,42.5,42.5h280.8c3.2,0,6-1.8,7.5-4.5C490.2,351.6,490,348.2,488.2,345.7z
	 M39.3,274V44.6h169.9v34V274h-42.5H39.3z M203,342c-14.1,0-25.5-11.4-25.5-25.5S188.9,291,203,291h14.8c4.7,0,8.5-3.8,8.5-8.5V87.1
	H465l-84.3,122.6c-2,2.9-2,6.7,0,9.6L465,342H203z"/>
</svg>
