<?xml version="1.0" encoding="utf-8"?>
<!-- Generator: Adobe Illustrator 22.0.1, SVG Export Plug-In . SVG Version: 6.00 Build 0)  -->
<svg version="1.1" id="_x31_" xmlns="http://www.w3.org/2000/svg" xmlns:xlink="http://www.w3.org/1999/xlink" x="0px" y="0px"
	 viewBox="0 0 512 512" style="enable-background:new 0 0 512 512;" xml:space="preserve">
<style type="text/css">
	.st0{fill:#005E98;}
</style>
<g>
	<path class="st0" d="M162.1,25.6c-4.7,0-8.5,3.8-8.5,8.5v34.1c0,4.7,3.8,8.5,8.5,8.5c4.7,0,8.5-3.8,8.5-8.5V34.1
		C170.7,29.4,166.8,25.6,162.1,25.6z"/>
	<path class="st0" d="M93.9,25.6c-4.7,0-8.5,3.8-8.5,8.5v34.1c0,4.7,3.8,8.5,8.5,8.5c4.7,0,8.5-3.8,8.5-8.5V34.1
		C102.4,29.4,98.6,25.6,93.9,25.6z"/>
	<path class="st0" d="M469.3,221.9H221.9V110.9c0-4.7-3.8-8.5-8.5-8.5h-17.1V8.5c0-4.7-3.8-8.5-8.5-8.5H68.3c-4.7,0-8.5,3.8-8.5,8.5
		v93.9H42.7c-4.7,0-8.5,3.8-8.5,8.5v358.4c0,4.7,3.8,8.5,8.5,8.5h17.1v8.5c0,14.1,11.5,25.6,25.6,25.6h85.3
		c14.1,0,25.6-11.5,25.6-25.6v-8.5h17.1c4.7,0,8.5-3.8,8.5-8.5v-59.7h247.5c4.7,0,8.5-3.8,8.5-8.5V230.4
		C477.9,225.7,474,221.9,469.3,221.9z M76.8,17.1h102.4v85.3H76.8V17.1z M51.2,119.5h153.6v102.4H128c-30.6,0-59.3,15-76.8,40.1
		V119.5z M204.8,460.8H51.2v-91.3c17.5,25.1,46.2,40,76.8,40.1h76.8V460.8z M460.8,392.5H128c-42.4,0-76.8-34.4-76.8-76.8
		c0-42.4,34.4-76.8,76.8-76.8h332.8V392.5z"/>
	<path class="st0" d="M85.3,315.7c0,23.6,19.1,42.7,42.7,42.7s42.7-19.1,42.7-42.7c0-23.6-19.1-42.6-42.7-42.7
		C104.4,273.1,85.3,292.2,85.3,315.7z"/>
	<path class="st0" d="M281.6,290.1H384c4.7,0,8.5-3.8,8.5-8.5c0-4.7-3.8-8.5-8.5-8.5H281.6c-4.7,0-8.5,3.8-8.5,8.5
		C273.1,286.3,276.9,290.1,281.6,290.1z"/>
	<path class="st0" d="M281.6,358.4H384c4.7,0,8.5-3.8,8.5-8.5c0-4.7-3.8-8.5-8.5-8.5H281.6c-4.7,0-8.5,3.8-8.5,8.5
		C273.1,354.6,276.9,358.4,281.6,358.4z"/>
</g>
</svg>
