<?xml version="1.0" encoding="utf-8"?>
<!-- Generator: Adobe Illustrator 22.0.1, SVG Export Plug-In . SVG Version: 6.00 Build 0)  -->
<svg version="1.1" id="_x31_" xmlns="http://www.w3.org/2000/svg" xmlns:xlink="http://www.w3.org/1999/xlink" x="0px" y="0px"
	 viewBox="0 0 512 512" style="enable-background:new 0 0 512 512;" xml:space="preserve">
<style type="text/css">
	.st0{fill:#005E98;}
</style>
<g>
	<path class="st0" d="M469.5,73.4l-37.2-8.3V39c0-4.2-3.4-7.5-7.5-7.5h-36.6L383,6.9c-0.9-4-4.9-6.7-8.9-5.8L256.9,26.2L140,0.2
		c-4.1-0.9-8.1,1.7-9,5.7l-5.7,25.6H87.2c-4.2,0-7.5,3.4-7.5,7.5v25.1l-35.7,7.7c-4,0.9-6.6,4.9-5.8,8.9l37.4,174.6L36.8,429.6
		c-0.9,4.1,1.7,8.1,5.7,9l37.2,8.3V473c0,4.2,3.4,7.5,7.5,7.5h36.6l5.3,24.6c0.9,4,4.9,6.7,8.9,5.8c0,0,115.9-24.9,116.5-25.2
		L372,511.8c4,0.9,8.1-1.7,9-5.7l5.7-25.6h38.1c4.2,0,7.5-3.4,7.5-7.5v-25.1l35.7-7.7c4-0.9,6.7-4.9,5.8-8.9l-37.4-174.6l38.7-174.3
		C476.1,78.4,473.6,74.3,469.5,73.4z M79.7,431.4l-26.5-5.9l26.5-119.4V431.4z M79.7,202.7L79.7,202.7L54.5,84.9l25.2-5.4V202.7z
		 M369.8,17.4l3,14.1h-68.6L369.8,17.4z M144,16.5l67.2,14.9h-70.5L144,16.5z M142.2,494.6l-3-14.1h68.6L142.2,494.6z M368,495.5
		l-67.2-14.9h70.5L368,495.5z M417.3,465.5H94.7v-419h322.5V465.5z M457.5,427.1l-25.2,5.4V309.3L457.5,427.1z M432.3,205.9V80.6
		l26.5,5.9L432.3,205.9z"/>
	<path class="st0" d="M361.9,328.3l20.7-27.6c1.7-2.3,2-5.3,0.7-7.9c-1.3-2.6-3.9-4.2-6.7-4.2h-33.3h-6.5H135.4
		c-6.1,0-9.7,7.2-6,12.1l20.7,27.6L129.4,356c-3.7,4.9-0.1,12.1,6,12.1h241.1c6.1,0,9.7-7.2,6-12.1L361.9,328.3z"/>
	<path class="st0" d="M352.5,385.1H159.6c-4.2,0-7.5,3.4-7.5,7.5s3.4,7.5,7.5,7.5h192.9c4.2,0,7.5-3.4,7.5-7.5
		S356.6,385.1,352.5,385.1z"/>
	<path class="st0" d="M352.5,417.3H159.6c-4.2,0-7.5,3.4-7.5,7.5s3.4,7.5,7.5,7.5h192.9c4.2,0,7.5-3.4,7.5-7.5
		S356.6,417.3,352.5,417.3z"/>
	<path class="st0" d="M252.1,254.4c2.4,1.4,5.5,1.4,7.8,0c2.6-1.6,65.2-40,91-82.9c14.7-24.5,6.8-62.2-17.4-82.4
		c-10.8-9-23.6-13.4-37.1-12.6c-13.4,0.8-27,6.5-40.4,17c-13.4-10.5-27-16.2-40.4-17c-13.5-0.8-26.3,3.6-37.1,12.6
		c-24.1,20.2-32.1,57.9-17.4,82.4C186.9,214.4,249.4,252.8,252.1,254.4z"/>
</g>
</svg>
