<?xml version="1.0" encoding="utf-8"?>
<!-- Generator: Adobe Illustrator 22.0.1, SVG Export Plug-In . SVG Version: 6.00 Build 0)  -->
<svg version="1.1" id="_x31_" xmlns="http://www.w3.org/2000/svg" xmlns:xlink="http://www.w3.org/1999/xlink" x="0px" y="0px"
	 viewBox="0 0 512 512" style="enable-background:new 0 0 512 512;" xml:space="preserve">
<style type="text/css">
	.st0{fill:url(#SVGID_1_);}
</style>
<linearGradient id="SVGID_1_" gradientUnits="userSpaceOnUse" x1="256" y1="106.0035" x2="256" y2="410.0016">
	<stop  offset="0" style="stop-color:#FDB620"/>
	<stop  offset="1" style="stop-color:#F8931F"/>
</linearGradient>
<path class="st0" d="M501.3,117.3c-83.8,0-130.2,21.4-132.2,22.3c-2.8,1.3-4.8,3.7-5.7,6.6c-0.7,2.6-0.5,5.3,0.6,7.7
	c-16.1-6.1-38.6-15-61.1-25.1c-38.5-17.2-63.3-11.9-90.8,9.8h-85.3c0.5-3.4,0.8-6.7,1.1-9.7c0.3-3.2-0.9-6.4-3.3-8.7
	C106.4,102.9,33.3,97.3,11.3,96c-3-0.1-5.8,0.9-8,2.9c-2.1,2-3.3,4.8-3.3,7.8v192c0,5.9,4.8,10.7,10.7,10.7h64c4.6,0,8.7-3,10.1-7.4
	c0.2-0.7,1.1-3.4,2.5-7.8c2.4,2.5,5.1,5.3,7.9,8.2c9.5,9.9,19.3,20.2,26,25.8c39.7,33.3,87.5,69.2,97,75.4
	c7.9,5.2,24.8,12.4,37.9,12.4c10.5,0,18.6-2.4,24.2-7.1c7.5,2.9,16,2.9,24.3-0.3c9.7-3.8,17.7-11.3,22.2-20.5
	c8.4,1.8,18,0.5,26.8-3.9c8.6-4.3,14.7-10.9,17.8-18.6c8.5,0.4,17.2-2.6,24.5-8.8c9.8-8.3,13.9-20.4,11.6-32.4l16.9-11.3
	c1.2,3.8,2.2,7.1,2.9,9.7c1.3,4.6,5.5,7.8,10.3,7.8h64c5.9,0,10.7-4.8,10.7-10.7V128C512,122.1,507.2,117.3,501.3,117.3z
	 M381.9,340.6c-4.1,3.5-9.5,4.7-12.7,2.8c-7.9-6.4-41.8-41-62.7-62.9c-4.1-4.3-10.8-4.4-15.1-0.3c-4.3,4.1-4.4,10.8-0.3,15.1
	c4.9,5.2,44.8,46.7,60.8,61.3c-1.2,4.6-5.7,7.4-7.9,8.5c-6.8,3.4-13.9,2.9-16.6,0.4c-0.2-0.2-0.4-0.4-0.6-0.6
	c-12.8-10.2-44.9-44.3-52.1-52.2c-4-4.4-10.7-4.6-15.1-0.6c-4.3,4-4.6,10.8-0.6,15.1c0.3,0.4,31.6,34.2,49.4,50
	c-2,5.1-6.2,9.4-11.4,11.4c-3.3,1.2-8,2-12.2-1.9c0,0,0,0,0,0c-0.1-0.1-0.2-0.2-0.3-0.3c-15.2-12.8-46.3-46-52.4-52.5
	c-4-4.3-10.8-4.5-15.1-0.5c-4.3,4-4.5,10.8-0.5,15.1c7.2,7.7,28.7,30.6,44.9,45.8c-1.4,0.2-3,0.3-5.1,0.3c-7.1,0-19.9-4.8-26.1-8.9
	c-7.5-4.9-54.4-40-95-73.9c-5.7-4.8-15.6-15.1-24.3-24.2c-6.4-6.6-12.3-12.8-16.2-16.4c8.9-29.4,21.8-74.5,28.9-111.2h65.4
	c-14.6,14.7-34.2,44-29.1,65.6c2.2,9.2,8.7,16,18.3,19.2c24.2,8,46.2,0.3,62.7-21.5c6.8-1,10.5-2.6,16-5.1c2-0.9,4.4-1.9,7.5-3.2
	c12.2,11.5,28.7,24.8,46,38.8c31.4,25.4,66.9,54.1,74.9,70.8C389,332.8,384.7,338.2,381.9,340.6z M397.9,305.2
	c-14.7-19.7-44.9-44.1-74.3-67.9c-19.4-15.7-37.7-30.5-49.3-42.1c-2.9-2.9-7.3-3.9-11.2-2.5c-7.2,2.6-11.6,4.6-15.1,6.2
	c-5.3,2.4-7.1,3.2-14.3,3.9c-3.2,0.3-6,2-7.8,4.7c-15.1,22.5-30.7,20.6-41.1,17.1c-3.3-1.1-3.9-2.5-4.2-3.9
	c-2.2-9.4,9-31.2,23.6-45.7c34.7-34.7,52.5-43.4,90.3-26.5c35.7,16,71.5,29.1,82.7,33.1c12.5,30.4,29.4,77.8,40.4,110.6L397.9,305.2
	z"/>
</svg>
