<?xml version="1.0" encoding="utf-8"?>
<!-- Generator: Adobe Illustrator 22.0.1, SVG Export Plug-In . SVG Version: 6.00 Build 0)  -->
<svg version="1.1" id="Слой_1" xmlns="http://www.w3.org/2000/svg" xmlns:xlink="http://www.w3.org/1999/xlink" x="0px" y="0px"
	 viewBox="0 0 512 512" style="enable-background:new 0 0 512 512;" xml:space="preserve">
<style type="text/css">
	.st0{fill:#005E98;}
</style>
<g>
	<path class="st0" d="M503.4,213.3c1.2,0,2.5-0.3,3.6-0.8c2.9-1.4,4.7-4.3,4.7-7.5v-44.2c0-2.5-1.2-4.9-3.2-6.5L373.7,48.1
		c-9.5-7.5-22.7-7.5-32.1,0l-50.8,40V72.5c0-4.6-3.7-8.3-8.3-8.3h-35.3c-4.6,0-8.3,3.7-8.3,8.3V129l-32.2,25.4c-2,1.6-3.2,4-3.2,6.5
		V205c0,3.2,1.8,6.1,4.7,7.5c2.9,1.4,6.2,1,8.7-0.9l4.3-3.4v80.7L144,228c-9.5-7.5-22.7-7.5-32.1,0L3.5,313.4c-2,1.6-3.2,4-3.2,6.5
		V364c0,3.2,1.8,6.1,4.7,7.5c1.1,0.6,2.4,0.8,3.6,0.8c1.8,0,3.6-0.6,5.1-1.8l4.3-3.4v85.8H8.6c-4.6,0-8.3,3.7-8.3,8.3
		c0,4.6,3.7,8.3,8.3,8.3h494.8c4.6,0,8.3-3.7,8.3-8.3c0-4.6-3.7-8.3-8.3-8.3H494V208.2l4.3,3.4l0,0
		C499.7,212.7,501.6,213.3,503.4,213.3z M168.2,452.9H87.6v-18.8h80.6V452.9z M168.2,417.6H87.6v-18.8h80.6V417.6z M168.2,382.3
		H87.6v-18.8h80.6V382.3z M221.2,452.9h-36.4v-97.7c0-4.6-3.7-8.3-8.3-8.3H79.3c-4.6,0-8.3,3.7-8.3,8.3v97.7H34.6v-98.8v0l93.3-73.5
		l93.3,73.5V452.9z M327.2,391.1c-0.2,0-0.4,0-0.6,0c-2.2,0-4.3,0.9-5.9,2.4c-1.5,1.5-2.4,3.7-2.4,5.9c0,2.2,0.9,4.3,2.4,5.9
		c1.5,1.5,3.7,2.4,5.9,2.4c0.2,0,0.4,0,0.6,0v45.3h-36.4V345.8h36.4V391.1z M477.4,452.9H343.8V337.5c0-4.6-3.7-8.3-8.3-8.3h-53
		c-4.6,0-8.3,3.7-8.3,8.3v115.4h-36.4V195.1l119.8-94.4l119.8,94.4V452.9z"/>
	<path class="st0" d="M379.7,416.5h53c4.6,0,8.3-3.7,8.3-8.3v-70.7c0-4.6-3.7-8.3-8.3-8.3h-53c-4.6,0-8.3,3.7-8.3,8.3v70.7
		C371.4,412.8,375.1,416.5,379.7,416.5z M388,345.8h36.4v9.9H388V345.8z M388,372.3h36.4v27.6H388V372.3z"/>
	<path class="st0" d="M379.7,292.8h53c4.6,0,8.3-3.7,8.3-8.3v-70.7c0-4.6-3.7-8.3-8.3-8.3h-53c-4.6,0-8.3,3.7-8.3,8.3v70.7
		C371.4,289.1,375.1,292.8,379.7,292.8z M388,222.1h36.4v9.9H388V222.1z M388,248.6h36.4v27.6H388V248.6z"/>
	<path class="st0" d="M335.5,205.6L335.5,205.6l-53,0c-4.6,0-8.3,3.7-8.3,8.3v70.7c0,4.6,3.7,8.3,8.3,8.3h53c4.6,0,8.3-3.7,8.3-8.3
		v-70.7C343.8,209.3,340.1,205.6,335.5,205.6z M327.2,276.2h-36.4v-27.6h36.4V276.2z M327.2,232.1h-36.4v-9.9h36.4V232.1z"/>
</g>
</svg>
