<?xml version="1.0" encoding="utf-8"?>
<!-- Generator: Adobe Illustrator 22.0.1, SVG Export Plug-In . SVG Version: 6.00 Build 0)  -->
<svg version="1.1" id="_x31_" xmlns="http://www.w3.org/2000/svg" xmlns:xlink="http://www.w3.org/1999/xlink" x="0px" y="0px"
	 viewBox="0 0 512 512" style="enable-background:new 0 0 512 512;" xml:space="preserve">
<style type="text/css">
	.st0{fill:#005E98;}
</style>
<g>
	<path class="st0" d="M470.7,389.3l-8.9-263.1c-0.8-23.1-15.1-43.8-36.5-52.7l-35.2-14.7l-28.2-46.7C357.4,4.6,349.2,0,340.4,0
		H171.6c-8.7,0-17,4.6-21.5,12.1l-28.2,46.7L86.7,73.5c-21.4,8.9-35.7,29.6-36.5,52.7l-8.9,263.1c-0.3,8.2,3.6,16,9.9,20.8L50,435.8
		c-0.5,9.9,5,19.2,13.8,23.6l64.5,32.4v3.6c0,9.1,7.4,16.6,16.6,16.6h222.3c9.1,0,16.6-7.4,16.6-16.6v-3.6l64.5-32.4
		c8.9-4.5,14.3-13.7,13.8-23.6l-1.2-25.7C467.2,405.2,471,397.5,470.7,389.3z M248,461.8H137c-4.8,0-9.3-1.9-12.7-5.4
		c-3.4-3.5-5.1-8-5-12.8l5.5-188.1h123v206.3H248z M248,239.4H125.4l0.5-18.2h122v18.2H248z M248,205.2L248,205.2H126.4l0.8-26
		c0.1-4.4-3.4-8.1-7.8-8.3c-4.4-0.1-8.1,3.4-8.2,7.8l-7,236.9l-41.3-17.2c-3.5-1.4-5.7-4.9-5.6-8.7l8.9-263
		c0.6-16.9,11-32,26.6-38.5l64-26.6c2.7-1.1,5.9-0.9,8.4,0.7L248,115V205.2z M186.6,16h139.9l-68,52.3L186.6,16z M264,221.3h122
		l0.5,18.2H264V221.3z M387.6,456.4c-3.3,3.5-7.8,5.4-12.7,5.4H264V255.5h123l5.5,188.1C392.7,448.4,391,453,387.6,456.4z
		 M449.1,398.5l-41.3,17.2l-7-236.9c-0.1-4.4-3.8-7.9-8.2-7.8c-4.4,0.1-7.9,3.8-7.8,8.3l0.8,26H264V115l82.8-52.7
		c2.5-1.6,5.6-1.9,8.4-0.7l64,26.6c15.6,6.5,26,21.6,26.6,38.5l8.9,263.1C454.8,393.6,452.6,397.1,449.1,398.5z"/>
	<path class="st0" d="M150.9,434.6c0.8,0.3,1.7,0.4,2.5,0.4c3.4,0,6.5-2.1,7.6-5.5l25.7-77c1.4-4.2-0.9-8.7-5.1-10.1
		c-4.2-1.4-8.7,0.9-10.1,5.1l-25.7,77C144.4,428.7,146.7,433.2,150.9,434.6z"/>
	<path class="st0" d="M340.6,347.5c-1.4-4.2-5.9-6.5-10.1-5.1s-6.5,5.9-5.1,10.1l25.7,77c1.1,3.4,4.2,5.5,7.6,5.5
		c0.8,0,1.7-0.1,2.5-0.4c4.2-1.4,6.5-5.9,5.1-10.1L340.6,347.5z"/>
</g>
</svg>
