<?xml version="1.0" encoding="utf-8"?>
<!-- Generator: Adobe Illustrator 22.0.1, SVG Export Plug-In . SVG Version: 6.00 Build 0)  -->
<svg version="1.1" id="_x31_" xmlns="http://www.w3.org/2000/svg" xmlns:xlink="http://www.w3.org/1999/xlink" x="0px" y="0px"
	 viewBox="0 0 512 512" style="enable-background:new 0 0 512 512;" xml:space="preserve">
<style type="text/css">
	.st0{fill:#005E98;}
</style>
<g>
	<path class="st0" d="M0,508.3h255.9V244.4H0V508.3z"/>
	<path class="st0" d="M264.2,244.4v135.8H512V244.4H264.2z"/>
	<rect x="56.9" y="188.9" class="st0" width="15.7" height="15.7"/>
	<path class="st0" d="M239.8,220.1h-24.1v-95.3H95.3v38.8H111v-23h89v79.6H95.8c5-6.7,8-14.9,8-23.9c0-22-17.9-39.9-39.9-39.9
		S24,174.2,24,196.2c0,9,3,17.2,8,23.9H15.6v15.7h224.2V220.1z M67.5,220.1h-7.2c-11.6-1.8-20.5-11.8-20.5-23.9
		c0-13.3,10.8-24.2,24.2-24.2c13.3,0,24.2,10.8,24.2,24.2C88,208.3,79.1,218.4,67.5,220.1z"/>
	<rect x="120.9" y="156.5" class="st0" width="24.1" height="15.7"/>
	<rect x="168" y="156.5" class="st0" width="24.1" height="15.7"/>
	<rect x="120.9" y="188.9" class="st0" width="24.1" height="15.7"/>
	<rect x="168" y="188.9" class="st0" width="24.1" height="15.7"/>
	<path class="st0" d="M159.9,37.4c14.5,28.3,32.2,66.6,32.2,79.2h15.7c0-24.1-36.8-92.2-41-100l-6.9-12.9L153,16.6
		c-4.2,7.7-41,75.9-41,100h15.7C127.8,104.1,145.4,65.7,159.9,37.4z"/>
	<path class="st0" d="M136.1,116.6h15.7c0-5.2,3.7-8.2,8.2-8.2c4.5,0,8.2,2.9,8.2,8.2h15.7c0-13.6-10.7-23.9-23.9-23.9
		C146.8,92.8,136.1,103,136.1,116.6z"/>
</g>
</svg>
