<?xml version="1.0" encoding="utf-8"?>
<!-- Generator: Adobe Illustrator 22.0.1, SVG Export Plug-In . SVG Version: 6.00 Build 0)  -->
<svg version="1.1" id="_x31_" xmlns="http://www.w3.org/2000/svg" xmlns:xlink="http://www.w3.org/1999/xlink" x="0px" y="0px"
	 viewBox="0 0 512 512" style="enable-background:new 0 0 512 512;" xml:space="preserve">
<style type="text/css">
	.st0{fill:#005E98;}
</style>
<g>
	<path class="st0" d="M488,220.5H368v-154c0-13.2-10.8-24-24-24H24c-13.2,0-24,10.8-24,24v188c0,13.2,10.8,24,24,24h120v154
		c0,13.2,10.8,24,24,24h320c13.2,0,24-10.8,24-24v-188C512,231.3,501.2,220.5,488,220.5z M352,66.5v154h-35.3l-73.6-77.3l106.3-82.6
		C351,62,352,64.2,352,66.5z M16,254.5v-188c0-1.1,0.2-2.1,0.6-3l105.1,80L17.3,258.9C16.5,257.6,16,256.1,16,254.5z M168,220.5
		c-13.2,0-24,10.8-24,24v18H33.2L133,152.2l49.8,37.9l49.1-38.2l65.3,68.6H168z M496,432.5c0,4.4-3.6,8-8,8H168c-4.4,0-8-3.6-8-8
		v-188c0-4.4,3.6-8,8-8h184h16h120c4.4,0,8,3.6,8,8V432.5z"/>
	<path class="st0" d="M321.3,410.5H190.8c-4.4,0-8,3.6-8,8c0,4.4,3.6,8,8,8h130.5c4.4,0,8-3.6,8-8
		C329.3,414.1,325.7,410.5,321.3,410.5z"/>
	<path class="st0" d="M321.3,382.5H190.8c-4.4,0-8,3.6-8,8c0,4.4,3.6,8,8,8h130.5c4.4,0,8-3.6,8-8
		C329.3,386.1,325.7,382.5,321.3,382.5z"/>
	<path class="st0" d="M321.3,354.5H190.8c-4.4,0-8,3.6-8,8c0,4.4,3.6,8,8,8h130.5c4.4,0,8-3.6,8-8
		C329.3,358.1,325.7,354.5,321.3,354.5z"/>
	<path class="st0" d="M468.5,256h-49c-3.6,0-6.5,2.9-6.5,6.5V320c0,3.6,2.9,6.5,6.5,6.5h49c3.6,0,6.5-2.9,6.5-6.5v-57.5
		C475,258.9,472.1,256,468.5,256z"/>
</g>
</svg>
