<?xml version="1.0" encoding="utf-8"?>
<!-- Generator: Adobe Illustrator 22.0.1, SVG Export Plug-In . SVG Version: 6.00 Build 0)  -->
<svg version="1.1" id="_x31_" xmlns="http://www.w3.org/2000/svg" xmlns:xlink="http://www.w3.org/1999/xlink" x="0px" y="0px"
	 viewBox="0 0 512 512" style="enable-background:new 0 0 512 512;" xml:space="preserve">
<style type="text/css">
	.st0{fill:#005E98;}
</style>
<g>
	<path class="st0" d="M174.5,45.7v-14c0-17.5-14.2-31.7-31.7-31.7h0c-17.5,0-31.7,14.2-31.7,31.7V209v271.3
		c0,17.5,14.2,31.7,31.7,31.7h0c17.5,0,31.7-14.2,31.7-31.7V209V57c4.5,0,8.2,3.7,8.2,8.2v92.3c0,3.1,2.5,5.7,5.7,5.7
		s5.7-2.5,5.7-5.7V65.3C194.1,54.5,185.3,45.7,174.5,45.7z M125.7,33c0-9.5,7.7-17.2,17.2-17.2h0c9.5,0,17.2,7.7,17.2,17.2v160.9
		h-34.3V33z M160,467h-34.3V209H160V467z"/>
	<path class="st0" d="M278.8,45.7C278.8,45.7,278.8,45.7,278.8,45.7l0-14c0-17.5-14.2-31.7-31.7-31.7h0c-17.5,0-31.7,14.2-31.7,31.7
		V209v271.3c0,17.5,14.2,31.7,31.7,31.7h0c17.5,0,31.7-14.2,31.7-31.7V209V57c0,0,0,0,0,0c4.5,0,8.2,3.7,8.2,8.2v92.3
		c0,3.1,2.5,5.7,5.7,5.7s5.7-2.5,5.7-5.7V65.3C298.3,54.5,289.5,45.7,278.8,45.7z M229.9,33c0-9.5,7.7-17.2,17.2-17.2h0
		c9.5,0,17.2,7.7,17.2,17.2v160.9h-34.3V33z M264.2,467h-34.3V209h34.3V467z"/>
	<path class="st0" d="M383,45.7C383,45.7,383,45.7,383,45.7l0-14C383,14.2,368.8,0,351.3,0h0c-17.5,0-31.7,14.2-31.7,31.7V209v271.3
		c0,17.5,14.2,31.7,31.7,31.7h0c17.5,0,31.7-14.2,31.7-31.7V209V57c0,0,0,0,0,0c4.5,0,8.2,3.7,8.2,8.2v92.3c0,3.1,2.5,5.7,5.7,5.7
		s5.7-2.5,5.7-5.7V65.3C402.6,54.5,393.8,45.7,383,45.7z M334.2,33c0-9.5,7.7-17.2,17.2-17.2h0c9.5,0,17.2,7.7,17.2,17.2v160.9
		h-34.3V33z M368.5,467h-34.3V209h34.3V467z"/>
</g>
</svg>
