<svg xmlns="http://www.w3.org/2000/svg" viewBox="0 0 512 512"><linearGradient id="a" gradientUnits="userSpaceOnUse" x1="256.028" y1="9" x2="256.028" y2="507.004"><stop offset="0" stop-color="#fdb620"/><stop offset="1" stop-color="#f8931f"/></linearGradient><path d="M346.2 161.3H165.8c-8.3 0-15.1 3.4-19.3 9.5-7 10.4-4.6 26.4-.5 37 8.3 20.9 31.6 36.7 54.3 36.7 14.5 0 26.2 9.2 26.2 20.4v21.7c0 13.6 12.3 24.6 27.4 24.6 15.1 0 27.4-11 27.4-24.6v-21.7c0-11.3 11.8-20.4 26.2-20.4h4c19.2 0 38.7-11 49.6-28 5.2-8.1 13.3-29.4 5.5-43.8-3.9-7.4-11.2-11.4-20.4-11.4zm-1.7 44.4c-7.4 11.5-20.3 18.9-32.9 18.9h-4c-25.4 0-46.1 18.1-46.1 40.3v21.7c0 2.2-3.2 4.7-7.6 4.7-4.3 0-7.6-2.5-7.6-4.7v-21.7c0-22.2-20.7-40.3-46.1-40.3-14.7 0-30.5-10.6-35.9-24.2-3.1-7.7-3.3-16-1.6-18.5.1-.2.6-.8 2.9-.8h180.3c2.6 0 2.9.7 3.1 1 2.5 4.1 0 16.7-4.5 23.6z" fill="url(#a)"/><linearGradient id="b" gradientUnits="userSpaceOnUse" x1="256.001" y1="9" x2="256.001" y2="507.004"><stop offset="0" stop-color="#fdb620"/><stop offset="1" stop-color="#f8931f"/></linearGradient><path d="M412.3 159.6V70.8c16.1-3.5 28.2-17.8 28.2-35 0-19.8-16-35.8-35.8-35.8H107.2C87.5 0 71.4 16 71.4 35.8c0 17.2 12.1 31.5 28.2 35v88.8c0 46.1 25.8 87.8 65.7 108.8-39.9 21-65.7 62.7-65.7 108.8v64c-16.1 3.5-28.2 17.8-28.2 35 0 19.8 16 35.8 35.8 35.8h297.5c19.8 0 35.8-16 35.8-35.8 0-17.2-12.1-31.5-28.2-35v-64c0-46.1-25.8-87.8-65.7-108.8 40-21 65.7-62.7 65.7-108.8zM154.9 439.5V428c0-15.6 22.6-30.4 46.5-30.4h4.3c14.2 0 20.4-9 25-15.6 5.3-7.7 9.5-13.8 27.4-13.8 17.4 0 21.7 6.1 27.2 13.8 4.7 6.6 11.1 15.6 25.3 15.6 23.9 0 46.5 14.8 46.5 30.4v11.5c-.2.2-.6.6-1.2.9H156.1c-.6-.4-1-.7-1.2-.9zm167.3-185.2c-6 2.1-10 7.7-10 14.1s4 12 10 14.1c40.4 13.9 67.5 52 67.5 94.7v63.2h-12.8V428c0-13.9-7.8-26.9-21.9-36.7-12.5-8.6-28.7-13.6-44.5-13.6-3.6 0-4.8-1.2-9.1-7.2-6.3-8.8-15.7-22.1-43.3-22.1-28.3 0-37.6 13.4-43.7 22.3-4.3 6.2-5.3 7-8.7 7h-4.3c-15.8 0-32 4.9-44.5 13.6C142.8 401 135 414.1 135 428v12.4h-12.8v-63.2c0-42.7 27.1-80.8 67.5-94.7 6-2.1 10-7.7 10-14.1s-4-12-10-14.1c-40.4-13.9-67.5-52-67.5-94.7v-88h267.3v88c.2 42.8-27 80.8-67.3 94.7z" fill="url(#b)"/></svg>