<?xml version="1.0" encoding="utf-8"?>
<!-- Generator: Adobe Illustrator 22.0.1, SVG Export Plug-In . SVG Version: 6.00 Build 0)  -->
<svg version="1.1" id="_x31_" xmlns="http://www.w3.org/2000/svg" xmlns:xlink="http://www.w3.org/1999/xlink" x="0px" y="0px"
	 viewBox="0 0 512 512" style="enable-background:new 0 0 512 512;" xml:space="preserve">
<style type="text/css">
	.st0{fill:#005E98;}
</style>
<path class="st0" d="M267.1,44.8l0-33.7C267.1,5,262.1,0,256,0s-11.1,5-11.1,11.1v33.7C108.9,50.7,0,163.1,0,300.5
	c0,6.1,5,11.1,11.1,11.1c25.3,0,38.4-14.3,49-25.9c9.5-10.4,17.1-18.6,32.6-18.6c15.5,0,23,8.2,32.6,18.6
	c8.6,9.4,19.1,20.6,36.5,24.4c1.6,0.8,3.3,1.4,5.2,1.4c0.7,0,1.3-0.3,1.9-0.4c1.8,0.2,3.5,0.4,5.5,0.4c25.3,0,38.5-14.3,49-25.9
	c6.9-7.6,12.8-13.9,21.5-16.9v187.4c0,0.4,0,0.9,0.1,1.3c0.7,30.1,25.4,54.4,55.6,54.4c30.7,0,55.7-25,55.7-55.7
	c0-6.1-5-11.1-11.1-11.1c-6.2,0-11.1,5-11.1,11.1c0,18.4-15,33.4-33.4,33.4s-33.4-15-33.4-33.4c0-0.4,0-0.8-0.1-1.2V268.9
	c8.6,2.9,14.5,9.3,21.5,16.9c10.6,11.5,23.7,25.9,49,25.9c2,0,3.7-0.2,5.6-0.4c0.6,0.1,1.2,0.4,1.9,0.4c1.9,0,3.7-0.6,5.3-1.5
	c17.2-3.9,27.7-15,36.3-24.4c9.5-10.4,17.1-18.7,32.6-18.7c15.5,0,23.1,8.2,32.6,18.7c10.6,11.5,23.7,25.9,49,25.9
	c6.2,0,11.1-5,11.1-11.1C512,163.1,403.2,50.7,267.1,44.8z M304.9,270.7c-10.6-11.5-23.7-25.9-49-25.9s-38.5,14.3-49,25.9
	c-8.7,9.5-15.7,17-28.6,18.4C181.2,136,238.5,81.8,256,68.9c17.6,12.9,74.9,67.2,77.6,220.2C320.7,287.8,313.6,280.2,304.9,270.7z"
	/>
</svg>
