<?xml version="1.0" encoding="utf-8"?>
<!-- Generator: Adobe Illustrator 22.0.1, SVG Export Plug-In . SVG Version: 6.00 Build 0)  -->
<svg version="1.1" id="_x31_" xmlns="http://www.w3.org/2000/svg" xmlns:xlink="http://www.w3.org/1999/xlink" x="0px" y="0px"
	 viewBox="0 0 512 512" style="enable-background:new 0 0 512 512;" xml:space="preserve">
<style type="text/css">
	.st0{fill:#005E98;}
</style>
<path class="st0" d="M421.3,0h-307C94.9,0,79.1,15.8,79.1,35.2v37.6C65.4,77.6,55.5,90.7,55.5,106v187.6
	c-13.7,4.8-23.6,17.9-23.6,33.2v47.2c0,15.4,9.9,28.4,23.6,33.2v69.5c0,19.4,15.8,35.2,35.2,35.2h330.6c32.4,0,58.8-26.4,58.8-58.8
	V58.8C480.1,26.4,453.7,0,421.3,0z M392,135L392,135l0,353.8H90.7c-6.6,0-12-5.4-12-12v-67.5h103.9v23.8c0,6.4,5.2,11.6,11.6,11.6
	c6.4,0,11.6-5.2,11.6-11.6v-0.2h24.1v0.2c0,6.4,5.2,11.6,11.6,11.6c6.4,0,11.6-5.2,11.6-11.6v-23.8h66.8c19.4,0,35.2-15.8,35.2-35.2
	v-47.2c0-19.4-15.8-35.2-35.2-35.2h-66.8v-23.8c0-6.4-5.2-11.6-11.6-11.6c-6.4,0-11.6,5.2-11.6,11.6v0.2h-24.1v-0.2
	c0-6.4-5.2-11.6-11.6-11.6c-6.4,0-11.6,5.2-11.6,11.6v23.8H78.7V106c0-6.6,5.4-12,12-12H392V135z M205.7,409.7v-12c0,0,0,0,0,0
	c0,0,0,0,0,0V291.2h24.1v118.5H205.7z M457,453.2c0,19.7-16,35.6-35.6,35.6h-6.1V146.2c0,0,0,0,0,0V91.6
	c10.4-4.5,17.7-14.9,17.7-26.9c0-6.4-5.2-11.6-11.6-11.6s-11.6,5.2-11.6,11.6c0,3.4-2.7,6.1-6.1,6.1H102.3V58.6H380
	c6.4,0,11.6-5.2,11.6-11.6c0-6.4-5.2-11.6-11.6-11.6H102.3v-0.2c0-6.6,5.4-12,12-12h307c19.7,0,35.6,16,35.6,35.6V453.2z"/>
</svg>
